# procedurally generated asteroid
v -0.385637 0.684540 -0.021152
v 0.478021 0.870584 -0.021152
v -0.670229 -0.987324 -0.021152
v 0.657925 -1.003978 -0.021152
v -0.011299 -0.593492 1.066718
v -0.011299 0.539824 0.724722
v -0.011299 -0.397417 -0.791766
v -0.011299 0.599807 -0.864081
v 0.949905 0.078848 -0.615209
v 0.898512 0.078848 0.541142
v -0.876914 0.078848 -0.556132
v -1.000693 0.078848 0.590327
v -0.713000 0.512524 0.246874
v -0.488717 0.373909 0.751327
v -0.206273 0.589298 0.294323
v 0.245821 0.751997 0.394877
v -0.011299 0.821833 -0.021152
v 0.287089 0.860036 -0.503953
v -0.295169 0.822031 -0.480464
v -0.505233 0.384117 -0.820354
v -0.776867 0.551996 -0.313573
v -1.129014 0.078848 -0.021152
v 0.484000 0.384960 0.780259
v 0.789994 0.574074 0.284914
v -0.620662 -0.297759 0.964819
v -0.011299 0.078848 1.041457
v -0.889675 -0.464018 -0.356662
v -1.040835 -0.557440 0.372096
v -0.011299 0.078848 -0.995431
v -0.469409 -0.204279 -0.762390
v 0.810652 0.586841 -0.335109
v 0.496493 0.392681 -0.842777
v 0.982642 -0.535440 0.358499
v 0.582642 -0.288227 0.939864
v 0.430907 -1.078860 0.694351
v -0.441823 -1.048278 0.675450
v -0.011299 -1.220849 -0.021152
v -0.318648 -0.725802 -0.518453
v 0.318201 -0.783792 -0.554293
v 0.508337 -0.242304 -0.861940
v 0.924199 -0.499321 -0.378480
v 1.074350 0.078848 -0.021152
v -0.526770 0.600461 0.098188
v -0.418561 0.555680 0.273546
v -0.276701 0.606528 0.137819
v -0.756928 0.249442 0.715699
v -0.624962 0.458113 0.502979
v -0.901821 0.347132 0.426746
v -0.131693 0.598874 0.505070
v -0.339424 0.532307 0.509766
v -0.242896 0.465499 0.747597
v -0.112198 0.669526 0.142107
v -0.198751 0.738709 -0.021152
v 0.122131 0.655173 0.562040
v -0.011299 0.677407 0.348777
v 0.219493 0.891269 -0.021152
v 0.110513 0.791945 0.175943
v 0.368714 0.834398 0.206469
v -0.145462 0.864254 -0.238233
v -0.368310 0.788668 -0.234996
v 0.398882 0.894379 -0.266843
v 0.132527 0.920820 -0.253867
v -0.167221 0.752329 -0.702657
v -0.011299 0.877807 -0.514936
v 0.146447 0.760204 -0.710626
v -0.549898 0.709452 -0.410886
v -0.595971 0.670487 -0.156514
v -0.268321 0.507946 -0.874296
v -0.424512 0.649895 -0.689745
v -0.875869 0.339313 -0.455997
v -0.684845 0.495123 -0.596429
v -0.708847 0.238441 -0.710487
v -0.774737 0.550680 -0.021152
v -1.033387 0.078848 -0.311506
v -0.980826 0.346819 -0.186767
v -0.998452 0.351691 0.147474
v -1.126531 0.078848 0.295662
v 0.537885 0.721843 0.376241
v 0.657479 0.755594 0.133681
v 0.233066 0.486814 0.789976
v 0.379133 0.618411 0.610579
v 0.868433 0.343881 0.421319
v 0.665793 0.497314 0.557153
v 0.713738 0.244730 0.695347
v -0.277951 0.243649 0.943605
v -0.011299 0.345498 0.917493
v -0.854061 -0.113968 0.811687
v -0.592890 0.078848 0.919883
v -0.011299 -0.238067 1.094435
v -0.308856 -0.105052 1.055420
v -0.333796 -0.459560 1.049325
v -1.156220 -0.237600 0.174424
v -1.082501 -0.243868 0.517621
v -0.910812 -0.192144 -0.473572
v -1.075937 -0.215411 -0.203014
v -0.896952 -0.817357 0.183892
v -1.028153 -0.549602 -0.021152
v -0.815366 -0.734799 -0.207307
v -0.520803 0.078848 -0.845548
v -0.698379 -0.078350 -0.700142
v -0.011299 0.349998 -0.975640
v -0.269209 0.238246 -0.954282
v -0.238884 -0.301104 -0.776584
v -0.256163 -0.072486 -0.907082
v -0.011299 -0.176536 -0.920142
v 0.412513 0.664541 -0.706893
v 0.248259 0.512178 -0.882709
v 0.670220 0.768487 -0.178935
v 0.570182 0.759658 -0.441915
v 0.734081 0.249385 -0.757755
v 0.692882 0.514056 -0.622594
v 0.909928 0.356382 -0.484493
v 0.877418 -0.820457 0.184601
v 0.786329 -0.855031 0.556017
v 0.590746 -1.118152 0.339462
v 0.778196 -0.101781 0.759047
v 0.840432 -0.447550 0.706313
v 0.975860 -0.218548 0.475350
v 0.210270 -0.878179 0.947278
v 0.556466 -0.705783 0.897510
v 0.311214 -0.459585 1.049375
v 0.217803 -1.262334 0.349542
v 0.343779 -1.171079 -0.021152
v -0.230017 -0.865871 0.934823
v -0.011299 -1.138355 0.731121
v -0.361969 -1.155563 -0.021152
v -0.237401 -1.244779 0.344690
v -0.598618 -1.088875 0.330642
v 0.178420 -1.031785 -0.328124
v 0.495221 -0.928226 -0.324548
v -0.502718 -0.898205 -0.315504
v -0.198382 -1.016356 -0.323859
v 0.144834 -0.595539 -0.703575
v -0.011299 -0.786092 -0.555715
v -0.156453 -0.548123 -0.655594
v 0.642386 -0.686499 -0.494163
v 0.810370 -0.752610 -0.211382
v 0.242040 -0.344100 -0.862069
v 0.427515 -0.527577 -0.731168
v 0.994083 -0.224038 -0.526820
v 0.753828 -0.394026 -0.674648
v 0.763054 -0.098317 -0.786388
v 0.996953 -0.544285 -0.021152
v 1.072198 0.078848 -0.328951
v 1.084146 -0.223925 -0.208276
v 1.062193 -0.217857 0.162222
v 1.014508 0.078848 0.270258
v 0.282744 -0.102880 1.042704
v 0.551468 0.078848 0.889423
v 0.256124 0.244125 0.946391
v -0.797207 -0.841310 0.547537
v -0.572191 -0.696286 0.886392
v -0.892445 -0.465730 0.731437
v -0.393597 -0.449475 -0.639724
v -0.617860 -0.631326 -0.460064
v -0.684053 -0.336937 -0.595753
v 0.533377 0.078848 -0.902455
v 0.248605 -0.081781 -0.961491
v 0.251674 0.241374 -0.972594
v 0.966208 0.349025 0.145826
v 0.990009 0.355603 -0.192196
v 0.840852 0.605507 -0.021152
f 1 43 45
f 13 44 43
f 15 45 44
f 43 44 45
f 12 46 48
f 14 47 46
f 13 48 47
f 46 47 48
f 6 49 51
f 15 50 49
f 14 51 50
f 49 50 51
f 13 47 44
f 14 50 47
f 15 44 50
f 47 50 44
f 1 45 53
f 15 52 45
f 17 53 52
f 45 52 53
f 6 54 49
f 16 55 54
f 15 49 55
f 54 55 49
f 2 56 58
f 17 57 56
f 16 58 57
f 56 57 58
f 15 55 52
f 16 57 55
f 17 52 57
f 55 57 52
f 1 53 60
f 17 59 53
f 19 60 59
f 53 59 60
f 2 61 56
f 18 62 61
f 17 56 62
f 61 62 56
f 8 63 65
f 19 64 63
f 18 65 64
f 63 64 65
f 17 62 59
f 18 64 62
f 19 59 64
f 62 64 59
f 1 60 67
f 19 66 60
f 21 67 66
f 60 66 67
f 8 68 63
f 20 69 68
f 19 63 69
f 68 69 63
f 11 70 72
f 21 71 70
f 20 72 71
f 70 71 72
f 19 69 66
f 20 71 69
f 21 66 71
f 69 71 66
f 1 67 43
f 21 73 67
f 13 43 73
f 67 73 43
f 11 74 70
f 22 75 74
f 21 70 75
f 74 75 70
f 12 48 77
f 13 76 48
f 22 77 76
f 48 76 77
f 21 75 73
f 22 76 75
f 13 73 76
f 75 76 73
f 2 58 79
f 16 78 58
f 24 79 78
f 58 78 79
f 6 80 54
f 23 81 80
f 16 54 81
f 80 81 54
f 10 82 84
f 24 83 82
f 23 84 83
f 82 83 84
f 16 81 78
f 23 83 81
f 24 78 83
f 81 83 78
f 6 51 86
f 14 85 51
f 26 86 85
f 51 85 86
f 12 87 46
f 25 88 87
f 14 46 88
f 87 88 46
f 5 89 91
f 26 90 89
f 25 91 90
f 89 90 91
f 14 88 85
f 25 90 88
f 26 85 90
f 88 90 85
f 12 77 93
f 22 92 77
f 28 93 92
f 77 92 93
f 11 94 74
f 27 95 94
f 22 74 95
f 94 95 74
f 3 96 98
f 28 97 96
f 27 98 97
f 96 97 98
f 22 95 92
f 27 97 95
f 28 92 97
f 95 97 92
f 11 72 100
f 20 99 72
f 30 100 99
f 72 99 100
f 8 101 68
f 29 102 101
f 20 68 102
f 101 102 68
f 7 103 105
f 30 104 103
f 29 105 104
f 103 104 105
f 20 102 99
f 29 104 102
f 30 99 104
f 102 104 99
f 8 65 107
f 18 106 65
f 32 107 106
f 65 106 107
f 2 108 61
f 31 109 108
f 18 61 109
f 108 109 61
f 9 110 112
f 32 111 110
f 31 112 111
f 110 111 112
f 18 109 106
f 31 111 109
f 32 106 111
f 109 111 106
f 4 113 115
f 33 114 113
f 35 115 114
f 113 114 115
f 10 116 118
f 34 117 116
f 33 118 117
f 116 117 118
f 5 119 121
f 35 120 119
f 34 121 120
f 119 120 121
f 33 117 114
f 34 120 117
f 35 114 120
f 117 120 114
f 4 115 123
f 35 122 115
f 37 123 122
f 115 122 123
f 5 124 119
f 36 125 124
f 35 119 125
f 124 125 119
f 3 126 128
f 37 127 126
f 36 128 127
f 126 127 128
f 35 125 122
f 36 127 125
f 37 122 127
f 125 127 122
f 4 123 130
f 37 129 123
f 39 130 129
f 123 129 130
f 3 131 126
f 38 132 131
f 37 126 132
f 131 132 126
f 7 133 135
f 39 134 133
f 38 135 134
f 133 134 135
f 37 132 129
f 38 134 132
f 39 129 134
f 132 134 129
f 4 130 137
f 39 136 130
f 41 137 136
f 130 136 137
f 7 138 133
f 40 139 138
f 39 133 139
f 138 139 133
f 9 140 142
f 41 141 140
f 40 142 141
f 140 141 142
f 39 139 136
f 40 141 139
f 41 136 141
f 139 141 136
f 4 137 113
f 41 143 137
f 33 113 143
f 137 143 113
f 9 144 140
f 42 145 144
f 41 140 145
f 144 145 140
f 10 118 147
f 33 146 118
f 42 147 146
f 118 146 147
f 41 145 143
f 42 146 145
f 33 143 146
f 145 146 143
f 5 121 89
f 34 148 121
f 26 89 148
f 121 148 89
f 10 84 116
f 23 149 84
f 34 116 149
f 84 149 116
f 6 86 80
f 26 150 86
f 23 80 150
f 86 150 80
f 34 149 148
f 23 150 149
f 26 148 150
f 149 150 148
f 3 128 96
f 36 151 128
f 28 96 151
f 128 151 96
f 5 91 124
f 25 152 91
f 36 124 152
f 91 152 124
f 12 93 87
f 28 153 93
f 25 87 153
f 93 153 87
f 36 152 151
f 25 153 152
f 28 151 153
f 152 153 151
f 7 135 103
f 38 154 135
f 30 103 154
f 135 154 103
f 3 98 131
f 27 155 98
f 38 131 155
f 98 155 131
f 11 100 94
f 30 156 100
f 27 94 156
f 100 156 94
f 38 155 154
f 27 156 155
f 30 154 156
f 155 156 154
f 9 142 110
f 40 157 142
f 32 110 157
f 142 157 110
f 7 105 138
f 29 158 105
f 40 138 158
f 105 158 138
f 8 107 101
f 32 159 107
f 29 101 159
f 107 159 101
f 40 158 157
f 29 159 158
f 32 157 159
f 158 159 157
f 10 147 82
f 42 160 147
f 24 82 160
f 147 160 82
f 9 112 144
f 31 161 112
f 42 144 161
f 112 161 144
f 2 79 108
f 24 162 79
f 31 108 162
f 79 162 108
f 42 161 160
f 31 162 161
f 24 160 162
f 161 162 160
