# procedurally generated asteroid
v -0.554187 0.885881 0.051419
v 0.486384 0.826024 0.051419
v -0.543288 -0.840020 0.051419
v 0.569911 -0.932949 0.051419
v -0.015405 -0.481783 0.853795
v -0.015405 0.475393 0.797786
v -0.015405 -0.582989 -0.914711
v -0.015405 0.595593 -0.889437
v 1.165666 0.014113 -0.678523
v 0.847763 0.014113 0.584886
v -0.857563 0.014113 -0.469064
v -0.952699 0.014113 0.630699
v -0.906027 0.564547 0.391606
v -0.557056 0.348871 0.927829
v -0.323566 0.820888 0.550034
v 0.200319 0.578885 0.400467
v -0.015405 1.005824 0.051419
v 0.326015 0.907961 -0.501010
v -0.331974 0.842902 -0.460801
v -0.597504 0.373870 -0.890437
v -0.820788 0.511867 -0.256210
v -0.982574 0.014113 0.051419
v 0.387590 0.263177 0.703479
v 0.703967 0.458709 0.326195
v -0.531388 -0.304783 0.886298
v -0.015405 0.014113 0.999984
v -0.809411 -0.476610 -0.251864
v -0.838394 -0.494523 0.365773
v -0.015405 0.014113 -1.173380
v -0.679834 -0.396527 -1.023649
v 0.951934 0.611961 -0.318071
v 0.631015 0.413622 -0.994510
v 0.934928 -0.573226 0.414414
v 0.388263 -0.235368 0.704568
v 0.300362 -0.812577 0.562341
v -0.326781 -0.801080 0.555236
v -0.015405 -1.009418 0.051419
v -0.333489 -0.818642 -0.463251
v 0.314191 -0.848780 -0.481878
v 0.595931 -0.363714 -0.937744
v 1.026380 -0.629746 -0.346507
v 1.247149 0.014113 0.051419
v -0.748801 0.756246 0.221213
v -0.646760 0.753316 0.508272
v -0.460752 0.899564 0.318175
v -0.799742 0.193562 0.826522
v -0.788307 0.491793 0.711556
v -0.984317 0.306012 0.538744
v -0.164818 0.659478 0.704473
v -0.462432 0.631889 0.774724
v -0.277200 0.451178 0.920403
v -0.173750 0.941084 0.307627
v -0.291262 0.985169 0.051419
v 0.102563 0.523656 0.567033
v -0.015405 0.740260 0.500203
v 0.248934 0.944626 0.051419
v 0.128020 0.853740 0.283486
v 0.334177 0.709160 0.260813
v -0.181025 0.983670 -0.216560
v -0.456071 0.890256 -0.212532
v 0.443722 0.926961 -0.223590
v 0.152510 0.997102 -0.220273
v -0.184562 0.744760 -0.687934
v -0.015405 0.909938 -0.502232
v 0.163496 0.786844 -0.730519
v -0.612248 0.712909 -0.380461
v -0.723281 0.730423 -0.112466
v -0.303162 0.494521 -0.903742
v -0.461274 0.630288 -0.670012
v -0.848054 0.264961 -0.367371
v -0.732313 0.457186 -0.560894
v -0.813739 0.196764 -0.737515
v -0.897481 0.559266 0.051419
v -0.880448 0.014113 -0.194322
v -0.926446 0.265918 -0.104205
v -1.021580 0.292213 0.223294
v -1.034123 0.014113 0.340815
v 0.401141 0.501813 0.352834
v 0.595887 0.632688 0.192944
v 0.191623 0.359745 0.738614
v 0.268225 0.406080 0.510342
v 0.823631 0.266885 0.473421
v 0.530643 0.351589 0.517799
v 0.605232 0.156109 0.664748
v -0.283778 0.179976 1.022401
v -0.015405 0.271588 0.957771
v -0.767358 -0.157928 0.794519
v -0.576394 0.014113 0.959118
v -0.015405 -0.239419 0.943888
v -0.279618 -0.149180 1.007349
v -0.273946 -0.417521 0.909605
v -0.973493 -0.250696 0.215080
v -0.922501 -0.259164 0.507653
v -0.846741 -0.236340 -0.366711
v -0.902418 -0.231052 -0.100101
v -0.712596 -0.691385 0.212831
v -0.857458 -0.506305 0.051419
v -0.707960 -0.686693 -0.108919
v -0.722510 0.014113 -1.092700
v -0.851427 -0.177162 -0.774759
v -0.015405 0.331020 -1.064140
v -0.343489 0.216880 -1.135600
v -0.343620 -0.533841 -1.038037
v -0.376068 -0.208790 -1.253474
v -0.015405 -0.320212 -1.125451
v 0.497454 0.722866 -0.778404
v 0.294197 0.530991 -0.976252
v 0.723737 0.762061 -0.119705
v 0.666444 0.812435 -0.441972
v 0.938527 0.232364 -0.891281
v 0.873724 0.563624 -0.707988
v 1.120097 0.356200 -0.519694
v 0.795599 -0.806554 0.239180
v 0.617703 -0.727143 0.509540
v 0.453594 -0.918364 0.332342
v 0.612457 -0.129537 0.671888
v 0.658159 -0.402173 0.626711
v 0.939153 -0.273462 0.531524
v 0.138773 -0.651832 0.725298
v 0.375269 -0.525785 0.683542
v 0.204910 -0.353702 0.782717
v 0.153088 -0.972263 0.324046
v 0.272897 -1.000752 0.051419
v -0.175126 -0.675778 0.749529
v -0.015405 -0.844022 0.581775
v -0.291280 -0.957007 0.051419
v -0.180079 -0.949903 0.317866
v -0.452301 -0.854536 0.313112
v 0.153259 -0.973262 -0.221485
v 0.455773 -0.922696 -0.230809
v -0.452768 -0.855464 -0.210554
v -0.180226 -0.950769 -0.215268
v 0.156500 -0.728402 -0.699942
v -0.015405 -0.864825 -0.491794
v -0.188798 -0.734832 -0.706448
v 0.660050 -0.776724 -0.437345
v 0.805712 -0.816787 -0.138684
v 0.281052 -0.480821 -0.932620
v 0.464124 -0.648580 -0.724475
v 1.176369 -0.344927 -0.547997
v 0.852321 -0.522171 -0.689708
v 0.923054 -0.200598 -0.875991
v 1.058746 -0.649749 0.051419
v 1.288395 0.014113 -0.318963
v 1.277367 -0.343201 -0.169413
v 1.175515 -0.315049 0.254852
v 1.094688 0.014113 0.366773
v 0.205007 -0.122110 0.848878
v 0.420888 0.014113 0.757356
v 0.214741 0.156351 0.884096
v -0.609556 -0.681532 0.481351
v -0.445348 -0.580054 0.747081
v -0.726406 -0.425310 0.658686
v -0.497845 -0.652602 -0.729185
v -0.616687 -0.689881 -0.383673
v -0.767874 -0.450939 -0.591266
v 0.667931 0.014113 -1.054242
v 0.299886 -0.180748 -1.089314
v 0.304555 0.211859 -1.106208
v 1.026800 0.302171 0.229449
v 1.150328 0.336313 -0.147712
v 0.876207 0.565159 0.051419
f 1 43 45
f 13 44 43
f 15 45 44
f 43 44 45
f 12 46 48
f 14 47 46
f 13 48 47
f 46 47 48
f 6 49 51
f 15 50 49
f 14 51 50
f 49 50 51
f 13 47 44
f 14 50 47
f 15 44 50
f 47 50 44
f 1 45 53
f 15 52 45
f 17 53 52
f 45 52 53
f 6 54 49
f 16 55 54
f 15 49 55
f 54 55 49
f 2 56 58
f 17 57 56
f 16 58 57
f 56 57 58
f 15 55 52
f 16 57 55
f 17 52 57
f 55 57 52
f 1 53 60
f 17 59 53
f 19 60 59
f 53 59 60
f 2 61 56
f 18 62 61
f 17 56 62
f 61 62 56
f 8 63 65
f 19 64 63
f 18 65 64
f 63 64 65
f 17 62 59
f 18 64 62
f 19 59 64
f 62 64 59
f 1 60 67
f 19 66 60
f 21 67 66
f 60 66 67
f 8 68 63
f 20 69 68
f 19 63 69
f 68 69 63
f 11 70 72
f 21 71 70
f 20 72 71
f 70 71 72
f 19 69 66
f 20 71 69
f 21 66 71
f 69 71 66
f 1 67 43
f 21 73 67
f 13 43 73
f 67 73 43
f 11 74 70
f 22 75 74
f 21 70 75
f 74 75 70
f 12 48 77
f 13 76 48
f 22 77 76
f 48 76 77
f 21 75 73
f 22 76 75
f 13 73 76
f 75 76 73
f 2 58 79
f 16 78 58
f 24 79 78
f 58 78 79
f 6 80 54
f 23 81 80
f 16 54 81
f 80 81 54
f 10 82 84
f 24 83 82
f 23 84 83
f 82 83 84
f 16 81 78
f 23 83 81
f 24 78 83
f 81 83 78
f 6 51 86
f 14 85 51
f 26 86 85
f 51 85 86
f 12 87 46
f 25 88 87
f 14 46 88
f 87 88 46
f 5 89 91
f 26 90 89
f 25 91 90
f 89 90 91
f 14 88 85
f 25 90 88
f 26 85 90
f 88 90 85
f 12 77 93
f 22 92 77
f 28 93 92
f 77 92 93
f 11 94 74
f 27 95 94
f 22 74 95
f 94 95 74
f 3 96 98
f 28 97 96
f 27 98 97
f 96 97 98
f 22 95 92
f 27 97 95
f 28 92 97
f 95 97 92
f 11 72 100
f 20 99 72
f 30 100 99
f 72 99 100
f 8 101 68
f 29 102 101
f 20 68 102
f 101 102 68
f 7 103 105
f 30 104 103
f 29 105 104
f 103 104 105
f 20 102 99
f 29 104 102
f 30 99 104
f 102 104 99
f 8 65 107
f 18 106 65
f 32 107 106
f 65 106 107
f 2 108 61
f 31 109 108
f 18 61 109
f 108 109 61
f 9 110 112
f 32 111 110
f 31 112 111
f 110 111 112
f 18 109 106
f 31 111 109
f 32 106 111
f 109 111 106
f 4 113 115
f 33 114 113
f 35 115 114
f 113 114 115
f 10 116 118
f 34 117 116
f 33 118 117
f 116 117 118
f 5 119 121
f 35 120 119
f 34 121 120
f 119 120 121
f 33 117 114
f 34 120 117
f 35 114 120
f 117 120 114
f 4 115 123
f 35 122 115
f 37 123 122
f 115 122 123
f 5 124 119
f 36 125 124
f 35 119 125
f 124 125 119
f 3 126 128
f 37 127 126
f 36 128 127
f 126 127 128
f 35 125 122
f 36 127 125
f 37 122 127
f 125 127 122
f 4 123 130
f 37 129 123
f 39 130 129
f 123 129 130
f 3 131 126
f 38 132 131
f 37 126 132
f 131 132 126
f 7 133 135
f 39 134 133
f 38 135 134
f 133 134 135
f 37 132 129
f 38 134 132
f 39 129 134
f 132 134 129
f 4 130 137
f 39 136 130
f 41 137 136
f 130 136 137
f 7 138 133
f 40 139 138
f 39 133 139
f 138 139 133
f 9 140 142
f 41 141 140
f 40 142 141
f 140 141 142
f 39 139 136
f 40 141 139
f 41 136 141
f 139 141 136
f 4 137 113
f 41 143 137
f 33 113 143
f 137 143 113
f 9 144 140
f 42 145 144
f 41 140 145
f 144 145 140
f 10 118 147
f 33 146 118
f 42 147 146
f 118 146 147
f 41 145 143
f 42 146 145
f 33 143 146
f 145 146 143
f 5 121 89
f 34 148 121
f 26 89 148
f 121 148 89
f 10 84 116
f 23 149 84
f 34 116 149
f 84 149 116
f 6 86 80
f 26 150 86
f 23 80 150
f 86 150 80
f 34 149 148
f 23 150 149
f 26 148 150
f 149 150 148
f 3 128 96
f 36 151 128
f 28 96 151
f 128 151 96
f 5 91 124
f 25 152 91
f 36 124 152
f 91 152 124
f 12 93 87
f 28 153 93
f 25 87 153
f 93 153 87
f 36 152 151
f 25 153 152
f 28 151 153
f 152 153 151
f 7 135 103
f 38 154 135
f 30 103 154
f 135 154 103
f 3 98 131
f 27 155 98
f 38 131 155
f 98 155 131
f 11 100 94
f 30 156 100
f 27 94 156
f 100 156 94
f 38 155 154
f 27 156 155
f 30 154 156
f 155 156 154
f 9 142 110
f 40 157 142
f 32 110 157
f 142 157 110
f 7 105 138
f 29 158 105
f 40 138 158
f 105 158 138
f 8 107 101
f 32 159 107
f 29 101 159
f 107 159 101
f 40 158 157
f 29 159 158
f 32 157 159
f 158 159 157
f 10 147 82
f 42 160 147
f 24 82 160
f 147 160 82
f 9 112 144
f 31 161 112
f 42 144 161
f 112 161 144
f 2 79 108
f 24 162 79
f 31 108 162
f 79 162 108
f 42 161 160
f 31 162 161
f 24 160 162
f 161 162 160
