# procedurally generated asteroid
v -0.496539 0.807485 0.014280
v 0.512041 0.801061 0.014280
v -0.501660 -0.839141 0.014280
v 0.386141 -0.620720 0.014280
v 0.009736 -0.536890 0.864079
v 0.009736 0.521006 0.876193
v 0.009736 -0.585939 -0.914881
v 0.009736 0.637094 -1.035466
v 0.868106 -0.011685 -0.516221
v 0.900493 -0.011685 0.564799
v -0.865685 -0.011685 -0.526760
v -0.958103 -0.011685 0.612438
v -0.730593 0.445864 0.297061
v -0.564375 0.343135 0.943212
v -0.290840 0.775235 0.500624
v 0.310050 0.774547 0.500198
v 0.009736 0.865313 0.014280
v 0.331794 0.831472 -0.506819
v -0.328115 0.872821 -0.532374
v -0.576859 0.350851 -0.934851
v -0.812362 0.496400 -0.299733
v -0.977774 -0.011685 0.014280
v 0.519323 0.303257 0.838809
v 0.819064 0.488507 0.323416
v -0.581876 -0.377322 0.971530
v 0.009736 -0.011685 1.059741
v -0.800787 -0.512616 -0.295312
v -0.820660 -0.524898 0.331464
v 0.009736 -0.011685 -1.123916
v -0.509685 -0.332705 -0.826161
v 0.822161 0.490421 -0.296038
v 0.550368 0.322444 -0.860480
v 0.742438 -0.464520 0.294148
v 0.565541 -0.355191 0.913591
v 0.268801 -0.689926 0.433456
v -0.281161 -0.773265 0.484963
v 0.009736 -0.835672 0.014280
v -0.296570 -0.813606 -0.481334
v 0.343443 -0.885340 -0.525668
v 0.625640 -0.392334 -0.982272
v 0.755831 -0.472797 -0.270703
v 0.975116 -0.011685 0.014280
v -0.642392 0.648213 0.165259
v -0.559710 0.655034 0.426336
v -0.403212 0.809349 0.261629
v -0.835476 0.181692 0.849541
v -0.708751 0.432365 0.627942
v -0.856363 0.249240 0.449894
v -0.150714 0.681355 0.715577
v -0.426787 0.591576 0.720591
v -0.264482 0.446121 0.924502
v -0.138626 0.856845 0.254336
v -0.242043 0.874615 0.014280
v 0.169693 0.679223 0.713420
v 0.009736 0.805722 0.519466
v 0.254732 0.850736 0.014280
v 0.156190 0.845669 0.251247
v 0.421219 0.806436 0.260752
v -0.146993 0.905822 -0.239312
v -0.425878 0.854415 -0.246645
v 0.431595 0.827066 -0.238406
v 0.163094 0.886084 -0.233857
v -0.182327 0.817902 -0.825191
v 0.009736 0.905866 -0.552797
v 0.194006 0.784237 -0.791125
v -0.616379 0.721383 -0.438781
v -0.677495 0.683734 -0.144825
v -0.314049 0.528874 -1.060474
v -0.492673 0.682627 -0.798634
v -0.880263 0.256441 -0.433355
v -0.744195 0.454271 -0.629654
v -0.751344 0.162443 -0.737839
v -0.782220 0.477771 0.014280
v -0.956587 -0.011685 -0.260232
v -0.920321 0.245376 -0.144592
v -0.871396 0.231854 0.164796
v -0.965134 -0.011685 0.291221
v 0.592825 0.671007 0.436207
v 0.694333 0.681068 0.172776
v 0.272496 0.426992 0.886469
v 0.436996 0.578773 0.705600
v 0.882814 0.251343 0.453405
v 0.705249 0.418165 0.608319
v 0.739095 0.155186 0.735051
v -0.284234 0.169999 1.077876
v 0.009736 0.270276 1.006823
v -0.861204 -0.210948 0.874966
v -0.654932 -0.011685 1.089736
v 0.009736 -0.295273 1.012552
v -0.286964 -0.195056 1.087751
v -0.265773 -0.471648 0.928790
v -0.957297 -0.278966 0.179469
v -0.930499 -0.294945 0.487182
v -0.861624 -0.274196 -0.423980
v -0.944123 -0.275325 -0.148658
v -0.680111 -0.709752 0.173992
v -0.842551 -0.538427 0.014280
v -0.680052 -0.709692 -0.145417
v -0.568670 -0.011685 -0.921600
v -0.719150 -0.178448 -0.706024
v 0.009736 0.319546 -1.151702
v -0.303060 0.181634 -1.117429
v -0.260632 -0.463064 -0.883163
v -0.276745 -0.188740 -1.022218
v 0.009736 -0.310642 -1.038094
v 0.472245 0.627486 -0.734074
v 0.311529 0.492156 -0.987469
v 0.697819 0.684596 -0.145023
v 0.607490 0.688177 -0.418258
v 0.737782 0.154886 -0.705193
v 0.718791 0.426535 -0.591325
v 0.875825 0.249237 -0.421328
v 0.526572 -0.534678 0.133937
v 0.528530 -0.619099 0.389683
v 0.322529 -0.633588 0.201638
v 0.787060 -0.189530 0.782452
v 0.761358 -0.476213 0.656242
v 0.901699 -0.280402 0.462903
v 0.161406 -0.666797 0.677198
v 0.449823 -0.619869 0.726355
v 0.281717 -0.465756 0.917076
v 0.130948 -0.721273 0.210406
v 0.213275 -0.728171 0.014280
v -0.144238 -0.676752 0.687271
v 0.009736 -0.744697 0.467307
v -0.240513 -0.892599 0.014280
v -0.130281 -0.831363 0.240834
v -0.402995 -0.832287 0.261499
v 0.153665 -0.854255 -0.218600
v 0.388789 -0.765327 -0.212766
v -0.414064 -0.854296 -0.239569
v -0.142328 -0.901884 -0.231765
v 0.194807 -0.811065 -0.794624
v 0.009736 -0.868096 -0.515011
v -0.155103 -0.723681 -0.706199
v 0.631717 -0.739912 -0.435789
v 0.564814 -0.573376 -0.114230
v 0.326321 -0.540222 -1.036571
v 0.566089 -0.780545 -0.885917
v 0.866571 -0.269819 -0.416674
v 0.815710 -0.509804 -0.674104
v 0.780790 -0.188095 -0.747695
v 0.688293 -0.431056 0.014280
v 0.944873 -0.011685 -0.251372
v 0.873372 -0.250388 -0.133246
v 0.890806 -0.255207 0.164785
v 0.967446 -0.011685 0.286346
v 0.284582 -0.181549 1.008681
v 0.567564 -0.011685 0.916864
v 0.278362 0.154335 0.986178
v -0.579417 -0.701478 0.440596
v -0.430103 -0.619528 0.725955
v -0.753404 -0.483332 0.666080
v -0.420311 -0.605996 -0.681551
v -0.576780 -0.698390 -0.410127
v -0.686464 -0.441960 -0.580346
v 0.583505 -0.011685 -0.914096
v 0.306897 -0.195340 -1.060856
v 0.307877 0.172576 -1.064403
v 0.956797 0.250076 0.176058
v 0.953023 0.249033 -0.146852
v 0.857538 0.512285 0.014280
f 1 43 45
f 13 44 43
f 15 45 44
f 43 44 45
f 12 46 48
f 14 47 46
f 13 48 47
f 46 47 48
f 6 49 51
f 15 50 49
f 14 51 50
f 49 50 51
f 13 47 44
f 14 50 47
f 15 44 50
f 47 50 44
f 1 45 53
f 15 52 45
f 17 53 52
f 45 52 53
f 6 54 49
f 16 55 54
f 15 49 55
f 54 55 49
f 2 56 58
f 17 57 56
f 16 58 57
f 56 57 58
f 15 55 52
f 16 57 55
f 17 52 57
f 55 57 52
f 1 53 60
f 17 59 53
f 19 60 59
f 53 59 60
f 2 61 56
f 18 62 61
f 17 56 62
f 61 62 56
f 8 63 65
f 19 64 63
f 18 65 64
f 63 64 65
f 17 62 59
f 18 64 62
f 19 59 64
f 62 64 59
f 1 60 67
f 19 66 60
f 21 67 66
f 60 66 67
f 8 68 63
f 20 69 68
f 19 63 69
f 68 69 63
f 11 70 72
f 21 71 70
f 20 72 71
f 70 71 72
f 19 69 66
f 20 71 69
f 21 66 71
f 69 71 66
f 1 67 43
f 21 73 67
f 13 43 73
f 67 73 43
f 11 74 70
f 22 75 74
f 21 70 75
f 74 75 70
f 12 48 77
f 13 76 48
f 22 77 76
f 48 76 77
f 21 75 73
f 22 76 75
f 13 73 76
f 75 76 73
f 2 58 79
f 16 78 58
f 24 79 78
f 58 78 79
f 6 80 54
f 23 81 80
f 16 54 81
f 80 81 54
f 10 82 84
f 24 83 82
f 23 84 83
f 82 83 84
f 16 81 78
f 23 83 81
f 24 78 83
f 81 83 78
f 6 51 86
f 14 85 51
f 26 86 85
f 51 85 86
f 12 87 46
f 25 88 87
f 14 46 88
f 87 88 46
f 5 89 91
f 26 90 89
f 25 91 90
f 89 90 91
f 14 88 85
f 25 90 88
f 26 85 90
f 88 90 85
f 12 77 93
f 22 92 77
f 28 93 92
f 77 92 93
f 11 94 74
f 27 95 94
f 22 74 95
f 94 95 74
f 3 96 98
f 28 97 96
f 27 98 97
f 96 97 98
f 22 95 92
f 27 97 95
f 28 92 97
f 95 97 92
f 11 72 100
f 20 99 72
f 30 100 99
f 72 99 100
f 8 101 68
f 29 102 101
f 20 68 102
f 101 102 68
f 7 103 105
f 30 104 103
f 29 105 104
f 103 104 105
f 20 102 99
f 29 104 102
f 30 99 104
f 102 104 99
f 8 65 107
f 18 106 65
f 32 107 106
f 65 106 107
f 2 108 61
f 31 109 108
f 18 61 109
f 108 109 61
f 9 110 112
f 32 111 110
f 31 112 111
f 110 111 112
f 18 109 106
f 31 111 109
f 32 106 111
f 109 111 106
f 4 113 115
f 33 114 113
f 35 115 114
f 113 114 115
f 10 116 118
f 34 117 116
f 33 118 117
f 116 117 118
f 5 119 121
f 35 120 119
f 34 121 120
f 119 120 121
f 33 117 114
f 34 120 117
f 35 114 120
f 117 120 114
f 4 115 123
f 35 122 115
f 37 123 122
f 115 122 123
f 5 124 119
f 36 125 124
f 35 119 125
f 124 125 119
f 3 126 128
f 37 127 126
f 36 128 127
f 126 127 128
f 35 125 122
f 36 127 125
f 37 122 127
f 125 127 122
f 4 123 130
f 37 129 123
f 39 130 129
f 123 129 130
f 3 131 126
f 38 132 131
f 37 126 132
f 131 132 126
f 7 133 135
f 39 134 133
f 38 135 134
f 133 134 135
f 37 132 129
f 38 134 132
f 39 129 134
f 132 134 129
f 4 130 137
f 39 136 130
f 41 137 136
f 130 136 137
f 7 138 133
f 40 139 138
f 39 133 139
f 138 139 133
f 9 140 142
f 41 141 140
f 40 142 141
f 140 141 142
f 39 139 136
f 40 141 139
f 41 136 141
f 139 141 136
f 4 137 113
f 41 143 137
f 33 113 143
f 137 143 113
f 9 144 140
f 42 145 144
f 41 140 145
f 144 145 140
f 10 118 147
f 33 146 118
f 42 147 146
f 118 146 147
f 41 145 143
f 42 146 145
f 33 143 146
f 145 146 143
f 5 121 89
f 34 148 121
f 26 89 148
f 121 148 89
f 10 84 116
f 23 149 84
f 34 116 149
f 84 149 116
f 6 86 80
f 26 150 86
f 23 80 150
f 86 150 80
f 34 149 148
f 23 150 149
f 26 148 150
f 149 150 148
f 3 128 96
f 36 151 128
f 28 96 151
f 128 151 96
f 5 91 124
f 25 152 91
f 36 124 152
f 91 152 124
f 12 93 87
f 28 153 93
f 25 87 153
f 93 153 87
f 36 152 151
f 25 153 152
f 28 151 153
f 152 153 151
f 7 135 103
f 38 154 135
f 30 103 154
f 135 154 103
f 3 98 131
f 27 155 98
f 38 131 155
f 98 155 131
f 11 100 94
f 30 156 100
f 27 94 156
f 100 156 94
f 38 155 154
f 27 156 155
f 30 154 156
f 155 156 154
f 9 142 110
f 40 157 142
f 32 110 157
f 142 157 110
f 7 105 138
f 29 158 105
f 40 138 158
f 105 158 138
f 8 107 101
f 32 159 107
f 29 101 159
f 107 159 101
f 40 158 157
f 29 159 158
f 32 157 159
f 158 159 157
f 10 147 82
f 42 160 147
f 24 82 160
f 147 160 82
f 9 112 144
f 31 161 112
f 42 144 161
f 112 161 144
f 2 79 108
f 24 162 79
f 31 108 162
f 79 162 108
f 42 161 160
f 31 162 161
f 24 160 162
f 161 162 160
