# procedurally generated asteroid
v -0.588558 0.900246 -0.000357
v 0.577339 0.956717 -0.000357
v -0.573907 -0.906039 -0.000357
v 0.488414 -0.842333 -0.000357
v -0.023060 -0.545863 0.859003
v -0.023060 0.557739 0.925949
v -0.023060 -0.572017 -0.902035
v -0.023060 0.564542 -0.937670
v 1.051775 -0.014749 -0.664642
v 1.015153 -0.014749 0.641294
v -0.917752 -0.014749 -0.553307
v -0.880987 -0.014749 0.529871
v -0.850695 0.496757 0.315772
v -0.536741 0.302723 0.830796
v -0.361985 0.872566 0.548034
v 0.331589 0.913733 0.573477
v -0.023060 1.062623 -0.000357
v 0.302588 0.837807 -0.527266
v -0.363914 0.877616 -0.551869
v -0.473722 0.263775 -0.729543
v -0.936055 0.549512 -0.349090
v -1.050795 -0.014749 -0.000357
v 0.581491 0.358883 0.977827
v 1.020542 0.630232 0.398264
v -0.526419 -0.325843 0.814095
v -0.023060 -0.014749 1.034659
v -0.892109 -0.551851 -0.332304
v -0.851169 -0.526549 0.315953
v -0.023060 -0.014749 -1.139573
v -0.546805 -0.338442 -0.847794
v 0.825459 0.509664 -0.324462
v 0.467161 0.288224 -0.793552
v 0.828957 -0.541325 0.325085
v 0.512509 -0.345750 0.866213
v 0.284473 -0.819882 0.497242
v -0.334552 -0.830246 0.503648
v -0.023060 -0.995017 -0.000357
v -0.355136 -0.884136 -0.537667
v 0.283764 -0.818027 -0.496809
v 0.541513 -0.363675 -0.913855
v 0.940096 -0.610013 -0.368250
v 1.178762 -0.014749 -0.000357
v -0.749881 0.720731 0.167915
v -0.640334 0.707967 0.446307
v -0.480988 0.895714 0.273934
v -0.732546 0.147575 0.700775
v -0.728279 0.421100 0.601972
v -0.895380 0.248050 0.438386
v -0.201671 0.756732 0.780316
v -0.483073 0.620973 0.743959
v -0.298203 0.444600 0.912934
v -0.196010 0.997718 0.279482
v -0.314549 1.011334 -0.000357
v 0.157569 0.765449 0.789137
v -0.023060 0.922194 0.578706
v 0.279230 1.049355 -0.000357
v 0.154721 1.025997 0.287298
v 0.479513 0.984480 0.300676
v -0.201471 1.029689 -0.289032
v -0.509394 0.952193 -0.291663
v 0.449681 0.925167 -0.283521
v 0.155714 1.031814 -0.289620
v -0.192766 0.718268 -0.742108
v -0.023060 0.915693 -0.575402
v 0.147283 0.721020 -0.744893
v -0.692455 0.768991 -0.484735
v -0.802341 0.773816 -0.180774
v -0.276510 0.408384 -0.841642
v -0.448208 0.572790 -0.688260
v -0.955597 0.266191 -0.469387
v -0.745600 0.431805 -0.617479
v -0.720472 0.144812 -0.689558
v -0.929529 0.545479 -0.000357
v -1.031809 -0.014749 -0.286921
v -1.032656 0.264296 -0.172816
v -0.995478 0.254020 0.165752
v -0.998439 -0.014749 0.276728
v 0.708589 0.841881 0.529070
v 0.821625 0.839999 0.195202
v 0.271320 0.476717 0.976789
v 0.489217 0.693200 0.828525
v 1.094598 0.321962 0.561781
v 0.871798 0.538303 0.763943
v 0.855068 0.186158 0.867432
v -0.292163 0.151565 0.973265
v -0.023060 0.273944 1.015885
v -0.730261 -0.176551 0.698517
v -0.553636 -0.014749 0.858133
v -0.023060 -0.293515 0.980939
v -0.288957 -0.179083 0.961666
v -0.284867 -0.451834 0.868666
v -0.996809 -0.283887 0.165979
v -0.896934 -0.278017 0.439168
v -0.939908 -0.290964 -0.461495
v -1.016512 -0.289333 -0.170059
v -0.743399 -0.743671 0.166414
v -0.913743 -0.565222 -0.000357
v -0.765931 -0.766471 -0.172344
v -0.520702 -0.014749 -0.805558
v -0.753176 -0.181793 -0.721876
v -0.023060 0.304810 -1.125254
v -0.278496 0.143119 -0.924534
v -0.299849 -0.476848 -0.919113
v -0.289620 -0.179492 -0.964779
v -0.023060 -0.309380 -1.037500
v 0.386423 0.551142 -0.662915
v 0.260344 0.458393 -0.941071
v 0.747097 0.764584 -0.178661
v 0.564886 0.673630 -0.425799
v 0.712083 0.153445 -0.726844
v 0.616331 0.380416 -0.546462
v 0.917146 0.268502 -0.473244
v 0.676384 -0.722527 0.161577
v 0.570964 -0.710245 0.429483
v 0.401941 -0.859748 0.254212
v 0.779926 -0.198466 0.793175
v 0.710988 -0.468416 0.626595
v 0.945826 -0.306641 0.486955
v 0.138496 -0.712564 0.705772
v 0.411773 -0.615674 0.703218
v 0.244110 -0.460788 0.886469
v 0.135732 -0.944334 0.256574
v 0.238911 -0.936927 -0.000357
v -0.184465 -0.711911 0.705111
v -0.023060 -0.863180 0.524002
v -0.301566 -0.995130 -0.000357
v -0.185480 -0.965574 0.262445
v -0.466307 -0.896024 0.265140
v 0.134303 -0.935968 -0.254975
v 0.397840 -0.851595 -0.252469
v -0.485745 -0.934671 -0.277497
v -0.188846 -0.985279 -0.268605
v 0.142465 -0.729707 -0.723832
v -0.023060 -0.883753 -0.537431
v -0.194716 -0.756190 -0.750631
v 0.596378 -0.740001 -0.448587
v 0.693863 -0.740214 -0.166337
v 0.254009 -0.477315 -0.920042
v 0.428498 -0.638787 -0.730993
v 1.138977 -0.364831 -0.584816
v 0.821756 -0.536874 -0.721916
v 0.847911 -0.214020 -0.861073
v 0.897477 -0.583673 -0.000357
v 1.191824 -0.014749 -0.345480
v 1.153791 -0.340023 -0.201387
v 1.052062 -0.311906 0.183296
v 1.134330 -0.014749 0.328434
v 0.254622 -0.186366 1.004306
v 0.579878 -0.014749 0.975217
v 0.265896 0.163835 1.045097
v -0.621643 -0.715583 0.432782
v -0.451692 -0.607105 0.693185
v -0.718587 -0.444609 0.593694
v -0.488047 -0.657346 -0.752722
v -0.666337 -0.767911 -0.465836
v -0.769160 -0.475864 -0.637602
v 0.551473 -0.014749 -0.929971
v 0.269828 -0.195764 -1.060036
v 0.283049 0.174436 -1.107868
v 1.157448 0.311535 0.201298
v 1.087388 0.292171 -0.190044
v 0.989521 0.611060 -0.000357
f 1 43 45
f 13 44 43
f 15 45 44
f 43 44 45
f 12 46 48
f 14 47 46
f 13 48 47
f 46 47 48
f 6 49 51
f 15 50 49
f 14 51 50
f 49 50 51
f 13 47 44
f 14 50 47
f 15 44 50
f 47 50 44
f 1 45 53
f 15 52 45
f 17 53 52
f 45 52 53
f 6 54 49
f 16 55 54
f 15 49 55
f 54 55 49
f 2 56 58
f 17 57 56
f 16 58 57
f 56 57 58
f 15 55 52
f 16 57 55
f 17 52 57
f 55 57 52
f 1 53 60
f 17 59 53
f 19 60 59
f 53 59 60
f 2 61 56
f 18 62 61
f 17 56 62
f 61 62 56
f 8 63 65
f 19 64 63
f 18 65 64
f 63 64 65
f 17 62 59
f 18 64 62
f 19 59 64
f 62 64 59
f 1 60 67
f 19 66 60
f 21 67 66
f 60 66 67
f 8 68 63
f 20 69 68
f 19 63 69
f 68 69 63
f 11 70 72
f 21 71 70
f 20 72 71
f 70 71 72
f 19 69 66
f 20 71 69
f 21 66 71
f 69 71 66
f 1 67 43
f 21 73 67
f 13 43 73
f 67 73 43
f 11 74 70
f 22 75 74
f 21 70 75
f 74 75 70
f 12 48 77
f 13 76 48
f 22 77 76
f 48 76 77
f 21 75 73
f 22 76 75
f 13 73 76
f 75 76 73
f 2 58 79
f 16 78 58
f 24 79 78
f 58 78 79
f 6 80 54
f 23 81 80
f 16 54 81
f 80 81 54
f 10 82 84
f 24 83 82
f 23 84 83
f 82 83 84
f 16 81 78
f 23 83 81
f 24 78 83
f 81 83 78
f 6 51 86
f 14 85 51
f 26 86 85
f 51 85 86
f 12 87 46
f 25 88 87
f 14 46 88
f 87 88 46
f 5 89 91
f 26 90 89
f 25 91 90
f 89 90 91
f 14 88 85
f 25 90 88
f 26 85 90
f 88 90 85
f 12 77 93
f 22 92 77
f 28 93 92
f 77 92 93
f 11 94 74
f 27 95 94
f 22 74 95
f 94 95 74
f 3 96 98
f 28 97 96
f 27 98 97
f 96 97 98
f 22 95 92
f 27 97 95
f 28 92 97
f 95 97 92
f 11 72 100
f 20 99 72
f 30 100 99
f 72 99 100
f 8 101 68
f 29 102 101
f 20 68 102
f 101 102 68
f 7 103 105
f 30 104 103
f 29 105 104
f 103 104 105
f 20 102 99
f 29 104 102
f 30 99 104
f 102 104 99
f 8 65 107
f 18 106 65
f 32 107 106
f 65 106 107
f 2 108 61
f 31 109 108
f 18 61 109
f 108 109 61
f 9 110 112
f 32 111 110
f 31 112 111
f 110 111 112
f 18 109 106
f 31 111 109
f 32 106 111
f 109 111 106
f 4 113 115
f 33 114 113
f 35 115 114
f 113 114 115
f 10 116 118
f 34 117 116
f 33 118 117
f 116 117 118
f 5 119 121
f 35 120 119
f 34 121 120
f 119 120 121
f 33 117 114
f 34 120 117
f 35 114 120
f 117 120 114
f 4 115 123
f 35 122 115
f 37 123 122
f 115 122 123
f 5 124 119
f 36 125 124
f 35 119 125
f 124 125 119
f 3 126 128
f 37 127 126
f 36 128 127
f 126 127 128
f 35 125 122
f 36 127 125
f 37 122 127
f 125 127 122
f 4 123 130
f 37 129 123
f 39 130 129
f 123 129 130
f 3 131 126
f 38 132 131
f 37 126 132
f 131 132 126
f 7 133 135
f 39 134 133
f 38 135 134
f 133 134 135
f 37 132 129
f 38 134 132
f 39 129 134
f 132 134 129
f 4 130 137
f 39 136 130
f 41 137 136
f 130 136 137
f 7 138 133
f 40 139 138
f 39 133 139
f 138 139 133
f 9 140 142
f 41 141 140
f 40 142 141
f 140 141 142
f 39 139 136
f 40 141 139
f 41 136 141
f 139 141 136
f 4 137 113
f 41 143 137
f 33 113 143
f 137 143 113
f 9 144 140
f 42 145 144
f 41 140 145
f 144 145 140
f 10 118 147
f 33 146 118
f 42 147 146
f 118 146 147
f 41 145 143
f 42 146 145
f 33 143 146
f 145 146 143
f 5 121 89
f 34 148 121
f 26 89 148
f 121 148 89
f 10 84 116
f 23 149 84
f 34 116 149
f 84 149 116
f 6 86 80
f 26 150 86
f 23 80 150
f 86 150 80
f 34 149 148
f 23 150 149
f 26 148 150
f 149 150 148
f 3 128 96
f 36 151 128
f 28 96 151
f 128 151 96
f 5 91 124
f 25 152 91
f 36 124 152
f 91 152 124
f 12 93 87
f 28 153 93
f 25 87 153
f 93 153 87
f 36 152 151
f 25 153 152
f 28 151 153
f 152 153 151
f 7 135 103
f 38 154 135
f 30 103 154
f 135 154 103
f 3 98 131
f 27 155 98
f 38 131 155
f 98 155 131
f 11 100 94
f 30 156 100
f 27 94 156
f 100 156 94
f 38 155 154
f 27 156 155
f 30 154 156
f 155 156 154
f 9 142 110
f 40 157 142
f 32 110 157
f 142 157 110
f 7 105 138
f 29 158 105
f 40 138 158
f 105 158 138
f 8 107 101
f 32 159 107
f 29 101 159
f 107 159 101
f 40 158 157
f 29 159 158
f 32 157 159
f 158 159 157
f 10 147 82
f 42 160 147
f 24 82 160
f 147 160 82
f 9 112 144
f 31 161 112
f 42 144 161
f 112 161 144
f 2 79 108
f 24 162 79
f 31 108 162
f 79 162 108
f 42 161 160
f 31 162 161
f 24 160 162
f 161 162 160
