# procedurally generated asteroid
v -0.563712 0.984201 0.019416
v 0.546964 0.916383 0.019416
v -0.679733 -1.068455 0.019416
v 0.742327 -1.129013 0.019416
v 0.012583 -0.501165 0.914030
v 0.012583 0.638508 0.968833
v 0.012583 -0.589367 -1.017911
v 0.012583 0.590406 -0.852170
v 0.999742 0.051736 -0.590681
v 0.918699 0.051736 0.579427
v -1.035732 0.051736 -0.628478
v -0.958524 0.051736 0.619594
v -0.878842 0.602667 0.359910
v -0.516186 0.378534 0.874983
v -0.336144 0.964716 0.583669
v 0.341284 0.912286 0.551265
v 0.012583 1.104474 0.019416
v 0.325410 0.870726 -0.486747
v -0.304820 0.882709 -0.494153
v -0.517962 0.379631 -0.839023
v -0.871109 0.597888 -0.318124
v -1.234784 0.051736 0.019416
v 0.529363 0.371124 0.855583
v 0.835987 0.560628 0.333929
v -0.525032 -0.280528 0.889296
v 0.012583 0.051736 1.077290
v -1.186918 -0.689596 -0.438752
v -0.982740 -0.563408 0.399596
v 0.012583 0.051736 -1.074087
v -0.619950 -0.339191 -1.004045
v 0.843433 0.565230 -0.297940
v 0.578474 0.401476 -0.896214
v 1.003108 -0.560442 0.397763
v 0.533756 -0.270366 0.862691
v 0.380950 -0.912661 0.615447
v -0.336595 -0.862425 0.584399
v 0.012583 -1.339564 0.019416
v -0.409878 -1.054281 -0.664140
v 0.427673 -1.034982 -0.652212
v 0.624166 -0.326243 -0.970145
v 1.071874 -0.602941 -0.385197
v 1.148436 0.051736 0.019416
v -0.760955 0.834491 0.198504
v -0.617467 0.789412 0.475325
v -0.474545 1.020257 0.311198
v -0.745085 0.225084 0.768164
v -0.685459 0.483150 0.615616
v -0.949849 0.341684 0.503482
v -0.169479 0.838125 0.815175
v -0.435763 0.671335 0.744855
v -0.274845 0.531596 0.973487
v -0.167580 1.106431 0.310927
v -0.281965 1.088590 0.019416
v 0.189046 0.813937 0.790698
v 0.012583 1.004094 0.608006
v 0.294138 1.042852 0.019416
v 0.185596 1.064569 0.299356
v 0.461059 0.943407 0.288046
v -0.155859 1.037813 -0.253128
v -0.444317 0.960157 -0.254259
v 0.451881 0.925160 -0.243716
v 0.178409 1.022495 -0.248895
v -0.150890 0.757830 -0.695090
v 0.012583 0.915878 -0.514653
v 0.175887 0.757102 -0.694353
v -0.604009 0.773655 -0.426754
v -0.740681 0.813975 -0.154977
v -0.255565 0.499409 -0.870658
v -0.425770 0.657526 -0.689855
v -0.967566 0.347021 -0.473561
v -0.722802 0.506229 -0.608678
v -0.777509 0.232503 -0.761374
v -0.944585 0.643299 0.019416
v -1.201052 0.051736 -0.325352
v -1.095642 0.358042 -0.169891
v -1.097499 0.358556 0.209041
v -1.141764 0.051736 0.347342
v 0.616064 0.758304 0.456099
v 0.716669 0.764211 0.182424
v 0.290273 0.515339 0.941163
v 0.459012 0.668686 0.741753
v 0.904493 0.320438 0.468012
v 0.716480 0.486769 0.620616
v 0.733494 0.216674 0.731839
v -0.275044 0.229500 1.060061
v 0.012583 0.349271 1.066782
v -0.766613 -0.126537 0.789438
v -0.560501 0.051736 0.946686
v 0.012583 -0.232765 1.020903
v -0.266864 -0.120971 1.030465
v -0.261064 -0.405117 0.927744
v -1.204750 -0.284726 0.227362
v -1.005362 -0.254935 0.531403
v -1.186147 -0.309399 -0.583498
v -1.300129 -0.311088 -0.204822
v -0.876461 -0.847901 0.225245
v -1.168805 -0.678402 0.019416
v -0.981670 -0.954363 -0.210770
v -0.587119 0.051736 -0.950922
v -0.875915 -0.151544 -0.858621
v 0.012583 0.339187 -0.992451
v -0.267704 0.224963 -0.994671
v -0.309545 -0.486055 -1.049834
v -0.288318 -0.134231 -1.069254
v 0.012583 -0.262209 -1.085718
v 0.454029 0.661800 -0.694858
v 0.287737 0.511104 -0.893911
v 0.714515 0.762031 -0.143093
v 0.610296 0.751550 -0.413092
v 0.835561 0.240026 -0.793872
v 0.750357 0.507706 -0.610718
v 0.942896 0.332007 -0.448495
v 0.918241 -0.864712 0.229092
v 0.719613 -0.776069 0.531028
v 0.580723 -1.077853 0.359722
v 0.749897 -0.116955 0.748049
v 0.774133 -0.418927 0.669857
v 1.000166 -0.245788 0.516132
v 0.188850 -0.709619 0.789843
v 0.478427 -0.592044 0.773168
v 0.284187 -0.401705 0.920960
v 0.227500 -1.206406 0.367158
v 0.399279 -1.309490 0.019416
v -0.160929 -0.697722 0.777804
v 0.012583 -0.936421 0.630131
v -0.348379 -1.218905 0.019416
v -0.192034 -1.146116 0.350495
v -0.511901 -0.991058 0.333574
v 0.239554 -1.276973 -0.347830
v 0.622417 -1.160750 -0.345863
v -0.585590 -1.137567 -0.338879
v -0.208379 -1.241801 -0.338108
v 0.216541 -0.829226 -0.872042
v 0.012583 -1.076992 -0.678176
v -0.196501 -0.851368 -0.894448
v 0.809282 -0.881055 -0.557081
v 0.964295 -0.911314 -0.200921
v 0.323545 -0.467414 -1.012772
v 0.551815 -0.693464 -0.853079
v 1.067007 -0.265925 -0.510918
v 0.885386 -0.487686 -0.726047
v 0.875355 -0.145658 -0.833197
v 1.125540 -0.636109 0.019416
v 1.098039 0.051736 -0.288939
v 1.182922 -0.271737 -0.180501
v 1.180669 -0.271115 0.218949
v 1.088511 0.051736 0.325065
v 0.283829 -0.115903 1.000792
v 0.552554 0.051736 0.893107
v 0.287890 0.221885 1.015486
v -0.665920 -0.742669 0.510386
v -0.446118 -0.582173 0.761610
v -0.758938 -0.425090 0.678374
v -0.566180 -0.748095 -0.917043
v -0.843601 -0.950701 -0.600124
v -0.961572 -0.550325 -0.812611
v 0.652479 0.051736 -1.015957
v 0.317156 -0.136500 -1.082539
v 0.306358 0.233299 -1.043471
v 1.009767 0.327351 0.189756
v 1.014698 0.328714 -0.151765
v 0.877720 0.586420 0.019416
f 1 43 45
f 13 44 43
f 15 45 44
f 43 44 45
f 12 46 48
f 14 47 46
f 13 48 47
f 46 47 48
f 6 49 51
f 15 50 49
f 14 51 50
f 49 50 51
f 13 47 44
f 14 50 47
f 15 44 50
f 47 50 44
f 1 45 53
f 15 52 45
f 17 53 52
f 45 52 53
f 6 54 49
f 16 55 54
f 15 49 55
f 54 55 49
f 2 56 58
f 17 57 56
f 16 58 57
f 56 57 58
f 15 55 52
f 16 57 55
f 17 52 57
f 55 57 52
f 1 53 60
f 17 59 53
f 19 60 59
f 53 59 60
f 2 61 56
f 18 62 61
f 17 56 62
f 61 62 56
f 8 63 65
f 19 64 63
f 18 65 64
f 63 64 65
f 17 62 59
f 18 64 62
f 19 59 64
f 62 64 59
f 1 60 67
f 19 66 60
f 21 67 66
f 60 66 67
f 8 68 63
f 20 69 68
f 19 63 69
f 68 69 63
f 11 70 72
f 21 71 70
f 20 72 71
f 70 71 72
f 19 69 66
f 20 71 69
f 21 66 71
f 69 71 66
f 1 67 43
f 21 73 67
f 13 43 73
f 67 73 43
f 11 74 70
f 22 75 74
f 21 70 75
f 74 75 70
f 12 48 77
f 13 76 48
f 22 77 76
f 48 76 77
f 21 75 73
f 22 76 75
f 13 73 76
f 75 76 73
f 2 58 79
f 16 78 58
f 24 79 78
f 58 78 79
f 6 80 54
f 23 81 80
f 16 54 81
f 80 81 54
f 10 82 84
f 24 83 82
f 23 84 83
f 82 83 84
f 16 81 78
f 23 83 81
f 24 78 83
f 81 83 78
f 6 51 86
f 14 85 51
f 26 86 85
f 51 85 86
f 12 87 46
f 25 88 87
f 14 46 88
f 87 88 46
f 5 89 91
f 26 90 89
f 25 91 90
f 89 90 91
f 14 88 85
f 25 90 88
f 26 85 90
f 88 90 85
f 12 77 93
f 22 92 77
f 28 93 92
f 77 92 93
f 11 94 74
f 27 95 94
f 22 74 95
f 94 95 74
f 3 96 98
f 28 97 96
f 27 98 97
f 96 97 98
f 22 95 92
f 27 97 95
f 28 92 97
f 95 97 92
f 11 72 100
f 20 99 72
f 30 100 99
f 72 99 100
f 8 101 68
f 29 102 101
f 20 68 102
f 101 102 68
f 7 103 105
f 30 104 103
f 29 105 104
f 103 104 105
f 20 102 99
f 29 104 102
f 30 99 104
f 102 104 99
f 8 65 107
f 18 106 65
f 32 107 106
f 65 106 107
f 2 108 61
f 31 109 108
f 18 61 109
f 108 109 61
f 9 110 112
f 32 111 110
f 31 112 111
f 110 111 112
f 18 109 106
f 31 111 109
f 32 106 111
f 109 111 106
f 4 113 115
f 33 114 113
f 35 115 114
f 113 114 115
f 10 116 118
f 34 117 116
f 33 118 117
f 116 117 118
f 5 119 121
f 35 120 119
f 34 121 120
f 119 120 121
f 33 117 114
f 34 120 117
f 35 114 120
f 117 120 114
f 4 115 123
f 35 122 115
f 37 123 122
f 115 122 123
f 5 124 119
f 36 125 124
f 35 119 125
f 124 125 119
f 3 126 128
f 37 127 126
f 36 128 127
f 126 127 128
f 35 125 122
f 36 127 125
f 37 122 127
f 125 127 122
f 4 123 130
f 37 129 123
f 39 130 129
f 123 129 130
f 3 131 126
f 38 132 131
f 37 126 132
f 131 132 126
f 7 133 135
f 39 134 133
f 38 135 134
f 133 134 135
f 37 132 129
f 38 134 132
f 39 129 134
f 132 134 129
f 4 130 137
f 39 136 130
f 41 137 136
f 130 136 137
f 7 138 133
f 40 139 138
f 39 133 139
f 138 139 133
f 9 140 142
f 41 141 140
f 40 142 141
f 140 141 142
f 39 139 136
f 40 141 139
f 41 136 141
f 139 141 136
f 4 137 113
f 41 143 137
f 33 113 143
f 137 143 113
f 9 144 140
f 42 145 144
f 41 140 145
f 144 145 140
f 10 118 147
f 33 146 118
f 42 147 146
f 118 146 147
f 41 145 143
f 42 146 145
f 33 143 146
f 145 146 143
f 5 121 89
f 34 148 121
f 26 89 148
f 121 148 89
f 10 84 116
f 23 149 84
f 34 116 149
f 84 149 116
f 6 86 80
f 26 150 86
f 23 80 150
f 86 150 80
f 34 149 148
f 23 150 149
f 26 148 150
f 149 150 148
f 3 128 96
f 36 151 128
f 28 96 151
f 128 151 96
f 5 91 124
f 25 152 91
f 36 124 152
f 91 152 124
f 12 93 87
f 28 153 93
f 25 87 153
f 93 153 87
f 36 152 151
f 25 153 152
f 28 151 153
f 152 153 151
f 7 135 103
f 38 154 135
f 30 103 154
f 135 154 103
f 3 98 131
f 27 155 98
f 38 131 155
f 98 155 131
f 11 100 94
f 30 156 100
f 27 94 156
f 100 156 94
f 38 155 154
f 27 156 155
f 30 154 156
f 155 156 154
f 9 142 110
f 40 157 142
f 32 110 157
f 142 157 110
f 7 105 138
f 29 158 105
f 40 138 158
f 105 158 138
f 8 107 101
f 32 159 107
f 29 101 159
f 107 159 101
f 40 158 157
f 29 159 158
f 32 157 159
f 158 159 157
f 10 147 82
f 42 160 147
f 24 82 160
f 147 160 82
f 9 112 144
f 31 161 112
f 42 144 161
f 112 161 144
f 2 79 108
f 24 162 79
f 31 108 162
f 79 162 108
f 42 161 160
f 31 162 161
f 24 160 162
f 161 162 160
