# procedurally generated asteroid
v -0.474780 0.860223 -0.020935
v 0.479278 0.760500 -0.020935
v -0.528283 -0.869769 -0.020935
v 0.558373 -0.811454 -0.020935
v 0.033065 -0.518086 0.879659
v 0.033065 0.538095 0.787408
v 0.033065 -0.516291 -0.918624
v 0.033065 0.472496 -0.723137
v 0.789313 0.038512 -0.488322
v 0.878164 0.038512 0.501365
v -0.821368 0.038512 -0.549003
v -0.972408 0.038512 0.600482
v -0.864650 0.593330 0.321962
v -0.546688 0.396819 0.917126
v -0.239362 0.751735 0.419862
v 0.282725 0.692129 0.383023
v 0.033065 0.900117 -0.020935
v 0.263336 0.641368 -0.393521
v -0.244755 0.765855 -0.470457
v -0.442849 0.332643 -0.790979
v -0.770899 0.535389 -0.328022
v -1.031966 0.038512 -0.020935
v 0.527964 0.344376 0.779828
v 0.801445 0.513397 0.272560
v -0.559027 -0.327422 0.937091
v 0.033065 0.038512 1.078983
v -0.860613 -0.513812 -0.362290
v -0.822162 -0.490048 0.305733
v 0.033065 0.038512 -0.950278
v -0.516287 -0.301007 -0.909805
v 0.693025 0.446390 -0.273017
v 0.410740 0.271927 -0.632025
v 0.840074 -0.460247 0.287315
v 0.539738 -0.274629 0.798879
v 0.344524 -0.776899 0.483017
v -0.287285 -0.800175 0.497402
v 0.033065 -0.980395 -0.020935
v -0.359482 -0.989190 -0.656089
v 0.346332 -0.781631 -0.527811
v 0.504662 -0.252951 -0.783994
v 0.828712 -0.453225 -0.324845
v 0.997825 0.038512 -0.020935
v -0.677229 0.757269 0.143511
v -0.567099 0.741196 0.413348
v -0.374403 0.848651 0.223132
v -0.812121 0.231883 0.814301
v -0.749695 0.522284 0.647623
v -0.982865 0.344576 0.490039
v -0.107279 0.644707 0.592483
v -0.400736 0.638010 0.680970
v -0.242797 0.499062 0.894743
v -0.104013 0.840983 0.200863
v -0.216309 0.916347 -0.020935
v 0.165753 0.611635 0.559017
v 0.033065 0.685598 0.378987
v 0.262440 0.845946 -0.020935
v 0.163598 0.802666 0.190272
v 0.403435 0.774892 0.200911
v -0.110896 0.881273 -0.253868
v -0.373927 0.847704 -0.264716
v 0.375024 0.718404 -0.225763
v 0.166527 0.819814 -0.236881
v -0.104457 0.632514 -0.622014
v 0.033065 0.734211 -0.450901
v 0.155145 0.565814 -0.554520
v -0.527917 0.695322 -0.426866
v -0.652122 0.731862 -0.179567
v -0.201619 0.430316 -0.799931
v -0.359485 0.581002 -0.656093
v -0.824197 0.296775 -0.452104
v -0.632617 0.449926 -0.589495
v -0.655819 0.196122 -0.701708
v -0.858282 0.589395 -0.020935
v -0.947101 0.038512 -0.299379
v -0.952494 0.310914 -0.189288
v -1.036129 0.334030 0.161705
v -1.054958 0.038512 0.288150
v 0.568706 0.665650 0.366658
v 0.658502 0.671400 0.123865
v 0.284667 0.458559 0.814215
v 0.420883 0.574462 0.606567
v 0.877882 0.293026 0.403975
v 0.700884 0.451247 0.549451
v 0.731793 0.198374 0.669566
v -0.271936 0.227013 1.082569
v 0.033065 0.329450 1.003209
v -0.805290 -0.153297 0.807550
v -0.610132 0.038512 1.019779
v 0.033065 -0.257431 1.020826
v -0.275212 -0.152014 1.094422
v -0.259420 -0.449791 0.949921
v -0.978217 -0.241000 0.151813
v -0.929529 -0.251484 0.463213
v -0.871000 -0.233851 -0.475644
v -0.949196 -0.232978 -0.188725
v -0.688157 -0.691303 0.146040
v -0.854943 -0.510307 -0.020935
v -0.740134 -0.743900 -0.199944
v -0.488142 0.038512 -0.864266
v -0.696715 -0.128456 -0.742122
v 0.033065 0.277095 -0.860781
v -0.213840 0.191108 -0.914247
v -0.255459 -0.443179 -0.978644
v -0.230038 -0.124095 -0.972850
v 0.033065 -0.231141 -0.970153
v 0.334460 0.455030 -0.508602
v 0.232539 0.371532 -0.683055
v 0.606449 0.618727 -0.153683
v 0.468796 0.548675 -0.336233
v 0.600340 0.168299 -0.581530
v 0.545457 0.355187 -0.458570
v 0.756760 0.256536 -0.384925
v 0.725637 -0.662311 0.139407
v 0.621961 -0.650980 0.405195
v 0.467645 -0.825531 0.239371
v 0.737195 -0.122587 0.674905
v 0.723015 -0.387901 0.568353
v 0.892442 -0.220388 0.411298
v 0.197607 -0.672201 0.698245
v 0.463245 -0.555983 0.675112
v 0.300416 -0.407830 0.866493
v 0.196408 -0.917712 0.243359
v 0.307463 -0.927408 -0.020935
v -0.136470 -0.693768 0.720070
v 0.033065 -0.828723 0.515046
v -0.253135 -0.968953 -0.020935
v -0.131874 -0.927060 0.245943
v -0.412940 -0.848248 0.246215
v 0.199523 -0.935948 -0.290269
v 0.467544 -0.825330 -0.281180
v -0.480452 -0.982477 -0.328523
v -0.146426 -1.012247 -0.311357
v 0.200146 -0.683166 -0.751210
v 0.033065 -0.902876 -0.602744
v -0.158248 -0.787833 -0.857125
v 0.616234 -0.644275 -0.442920
v 0.723274 -0.659920 -0.180730
v 0.288333 -0.387657 -0.868254
v 0.453619 -0.542679 -0.701405
v 0.855145 -0.209152 -0.434409
v 0.697780 -0.372305 -0.588669
v 0.671317 -0.107515 -0.651671
v 0.877568 -0.483420 -0.020935
v 0.929758 0.038512 -0.275666
v 0.959429 -0.217529 -0.179177
v 0.973654 -0.221460 0.139737
v 0.978917 0.038512 0.247762
v 0.306114 -0.130242 0.966966
v 0.565162 0.038512 0.840016
v 0.304552 0.206300 0.961314
v -0.584851 -0.684957 0.426194
v -0.434021 -0.606985 0.734826
v -0.738420 -0.438292 0.637992
v -0.508415 -0.709795 -0.897068
v -0.710815 -0.832438 -0.559211
v -0.766558 -0.455683 -0.703894
v 0.483745 0.038512 -0.750149
v 0.277122 -0.112324 -0.903941
v 0.254411 0.175311 -0.821771
v 0.944017 0.290293 0.134675
v 0.895768 0.276957 -0.168302
v 0.797938 0.511229 -0.020935
f 1 43 45
f 13 44 43
f 15 45 44
f 43 44 45
f 12 46 48
f 14 47 46
f 13 48 47
f 46 47 48
f 6 49 51
f 15 50 49
f 14 51 50
f 49 50 51
f 13 47 44
f 14 50 47
f 15 44 50
f 47 50 44
f 1 45 53
f 15 52 45
f 17 53 52
f 45 52 53
f 6 54 49
f 16 55 54
f 15 49 55
f 54 55 49
f 2 56 58
f 17 57 56
f 16 58 57
f 56 57 58
f 15 55 52
f 16 57 55
f 17 52 57
f 55 57 52
f 1 53 60
f 17 59 53
f 19 60 59
f 53 59 60
f 2 61 56
f 18 62 61
f 17 56 62
f 61 62 56
f 8 63 65
f 19 64 63
f 18 65 64
f 63 64 65
f 17 62 59
f 18 64 62
f 19 59 64
f 62 64 59
f 1 60 67
f 19 66 60
f 21 67 66
f 60 66 67
f 8 68 63
f 20 69 68
f 19 63 69
f 68 69 63
f 11 70 72
f 21 71 70
f 20 72 71
f 70 71 72
f 19 69 66
f 20 71 69
f 21 66 71
f 69 71 66
f 1 67 43
f 21 73 67
f 13 43 73
f 67 73 43
f 11 74 70
f 22 75 74
f 21 70 75
f 74 75 70
f 12 48 77
f 13 76 48
f 22 77 76
f 48 76 77
f 21 75 73
f 22 76 75
f 13 73 76
f 75 76 73
f 2 58 79
f 16 78 58
f 24 79 78
f 58 78 79
f 6 80 54
f 23 81 80
f 16 54 81
f 80 81 54
f 10 82 84
f 24 83 82
f 23 84 83
f 82 83 84
f 16 81 78
f 23 83 81
f 24 78 83
f 81 83 78
f 6 51 86
f 14 85 51
f 26 86 85
f 51 85 86
f 12 87 46
f 25 88 87
f 14 46 88
f 87 88 46
f 5 89 91
f 26 90 89
f 25 91 90
f 89 90 91
f 14 88 85
f 25 90 88
f 26 85 90
f 88 90 85
f 12 77 93
f 22 92 77
f 28 93 92
f 77 92 93
f 11 94 74
f 27 95 94
f 22 74 95
f 94 95 74
f 3 96 98
f 28 97 96
f 27 98 97
f 96 97 98
f 22 95 92
f 27 97 95
f 28 92 97
f 95 97 92
f 11 72 100
f 20 99 72
f 30 100 99
f 72 99 100
f 8 101 68
f 29 102 101
f 20 68 102
f 101 102 68
f 7 103 105
f 30 104 103
f 29 105 104
f 103 104 105
f 20 102 99
f 29 104 102
f 30 99 104
f 102 104 99
f 8 65 107
f 18 106 65
f 32 107 106
f 65 106 107
f 2 108 61
f 31 109 108
f 18 61 109
f 108 109 61
f 9 110 112
f 32 111 110
f 31 112 111
f 110 111 112
f 18 109 106
f 31 111 109
f 32 106 111
f 109 111 106
f 4 113 115
f 33 114 113
f 35 115 114
f 113 114 115
f 10 116 118
f 34 117 116
f 33 118 117
f 116 117 118
f 5 119 121
f 35 120 119
f 34 121 120
f 119 120 121
f 33 117 114
f 34 120 117
f 35 114 120
f 117 120 114
f 4 115 123
f 35 122 115
f 37 123 122
f 115 122 123
f 5 124 119
f 36 125 124
f 35 119 125
f 124 125 119
f 3 126 128
f 37 127 126
f 36 128 127
f 126 127 128
f 35 125 122
f 36 127 125
f 37 122 127
f 125 127 122
f 4 123 130
f 37 129 123
f 39 130 129
f 123 129 130
f 3 131 126
f 38 132 131
f 37 126 132
f 131 132 126
f 7 133 135
f 39 134 133
f 38 135 134
f 133 134 135
f 37 132 129
f 38 134 132
f 39 129 134
f 132 134 129
f 4 130 137
f 39 136 130
f 41 137 136
f 130 136 137
f 7 138 133
f 40 139 138
f 39 133 139
f 138 139 133
f 9 140 142
f 41 141 140
f 40 142 141
f 140 141 142
f 39 139 136
f 40 141 139
f 41 136 141
f 139 141 136
f 4 137 113
f 41 143 137
f 33 113 143
f 137 143 113
f 9 144 140
f 42 145 144
f 41 140 145
f 144 145 140
f 10 118 147
f 33 146 118
f 42 147 146
f 118 146 147
f 41 145 143
f 42 146 145
f 33 143 146
f 145 146 143
f 5 121 89
f 34 148 121
f 26 89 148
f 121 148 89
f 10 84 116
f 23 149 84
f 34 116 149
f 84 149 116
f 6 86 80
f 26 150 86
f 23 80 150
f 86 150 80
f 34 149 148
f 23 150 149
f 26 148 150
f 149 150 148
f 3 128 96
f 36 151 128
f 28 96 151
f 128 151 96
f 5 91 124
f 25 152 91
f 36 124 152
f 91 152 124
f 12 93 87
f 28 153 93
f 25 87 153
f 93 153 87
f 36 152 151
f 25 153 152
f 28 151 153
f 152 153 151
f 7 135 103
f 38 154 135
f 30 103 154
f 135 154 103
f 3 98 131
f 27 155 98
f 38 131 155
f 98 155 131
f 11 100 94
f 30 156 100
f 27 94 156
f 100 156 94
f 38 155 154
f 27 156 155
f 30 154 156
f 155 156 154
f 9 142 110
f 40 157 142
f 32 110 157
f 142 157 110
f 7 105 138
f 29 158 105
f 40 138 158
f 105 158 138
f 8 107 101
f 32 159 107
f 29 101 159
f 107 159 101
f 40 158 157
f 29 159 158
f 32 157 159
f 158 159 157
f 10 147 82
f 42 160 147
f 24 82 160
f 147 160 82
f 9 112 144
f 31 161 112
f 42 144 161
f 112 161 144
f 2 79 108
f 24 162 79
f 31 108 162
f 79 162 108
f 42 161 160
f 31 162 161
f 24 160 162
f 161 162 160
