# procedurally generated asteroid
v -0.451611 0.804327 -0.026208
v 0.502402 0.827558 -0.026208
v -0.627239 -1.000240 -0.026208
v 0.535959 -0.793594 -0.026208
v 0.018217 -0.536284 0.912921
v 0.018217 0.422992 0.586804
v 0.018217 -0.398706 -0.742732
v 0.018217 0.511731 -0.782802
v 0.582577 0.044130 -0.375002
v 0.847418 0.044130 0.486267
v -0.810187 0.044130 -0.538190
v -0.747409 0.044130 0.446975
v -0.679096 0.475093 0.240142
v -0.299648 0.240581 0.488108
v -0.189380 0.587626 0.309691
v 0.260957 0.679633 0.366555
v 0.018217 0.918341 -0.026208
v 0.305321 0.795779 -0.490752
v -0.274148 0.809551 -0.499264
v -0.414101 0.311317 -0.725713
v -0.758665 0.524269 -0.322950
v -1.036751 0.044130 -0.026208
v 0.558543 0.378070 0.848058
v 0.717239 0.476149 0.240795
v -0.475795 -0.261186 0.773119
v 0.018217 0.044130 1.071655
v -0.930871 -0.542438 -0.388727
v -0.941222 -0.548835 0.340265
v 0.018217 0.044130 -0.738548
v -0.399815 -0.214228 -0.702598
v 0.693547 0.461507 -0.284161
v 0.407042 0.284437 -0.655341
v 0.835713 -0.461111 0.286048
v 0.644939 -0.343206 0.987850
v 0.340619 -0.799931 0.495451
v -0.322930 -0.849003 0.525779
v 0.018217 -1.016690 -0.026208
v -0.308359 -0.810856 -0.554618
v 0.314378 -0.731231 -0.505407
v 0.387891 -0.184341 -0.624354
v 0.687377 -0.369434 -0.281804
v 0.888012 0.044130 -0.026208
v -0.593923 0.663563 0.115513
v -0.426603 0.564934 0.295667
v -0.327227 0.730949 0.180707
v -0.483546 0.158929 0.469647
v -0.456894 0.337764 0.379585
v -0.711036 0.263828 0.340578
v -0.079935 0.468081 0.402794
v -0.243816 0.406251 0.397770
v -0.153364 0.330583 0.543325
v -0.106859 0.776338 0.176169
v -0.219786 0.881936 -0.026208
v 0.133157 0.540597 0.476174
v 0.018217 0.616883 0.327773
v 0.264055 0.909516 -0.026208
v 0.149487 0.812601 0.186192
v 0.396406 0.796055 0.200321
v -0.132569 0.926843 -0.270184
v -0.386650 0.849096 -0.268716
v 0.421420 0.845789 -0.267720
v 0.169810 0.931575 -0.271492
v -0.131547 0.691009 -0.680794
v 0.018217 0.849061 -0.523683
v 0.166275 0.683642 -0.673340
v -0.538665 0.696139 -0.429171
v -0.634762 0.704888 -0.177384
v -0.207279 0.420594 -0.774702
v -0.374826 0.587302 -0.662165
v -0.814773 0.295081 -0.445169
v -0.623530 0.440751 -0.574325
v -0.614661 0.188927 -0.651634
v -0.788669 0.542813 -0.026208
v -0.977586 0.044130 -0.309094
v -0.926395 0.305214 -0.187567
v -0.900535 0.298067 0.130734
v -0.956197 0.044130 0.250603
v 0.532743 0.646548 0.346107
v 0.648417 0.681839 0.119694
v 0.260552 0.448708 0.778184
v 0.389013 0.556558 0.573753
v 0.755721 0.266314 0.344728
v 0.639991 0.428408 0.504851
v 0.755147 0.212733 0.702046
v -0.198927 0.178332 0.759426
v 0.018217 0.295583 0.858943
v -0.626457 -0.103366 0.610876
v -0.404488 0.044130 0.657743
v 0.018217 -0.268729 1.075103
v -0.243921 -0.117880 0.922215
v -0.255463 -0.412777 0.882227
v -1.061629 -0.254332 0.158252
v -0.901054 -0.232814 0.436149
v -0.897159 -0.231641 -0.486606
v -1.060479 -0.254014 -0.210471
v -0.847598 -0.832000 0.174243
v -1.035792 -0.607283 -0.026208
v -0.844964 -0.829335 -0.226049
v -0.406314 0.044130 -0.713112
v -0.624503 -0.102919 -0.661360
v 0.018217 0.263113 -0.797061
v -0.182946 0.168455 -0.754021
v -0.189571 -0.302772 -0.715927
v -0.167710 -0.070779 -0.698898
v 0.018217 -0.152301 -0.717675
v 0.387047 0.553841 -0.622988
v 0.239835 0.414122 -0.761835
v 0.647705 0.681118 -0.171945
v 0.536537 0.650990 -0.401268
v 0.500061 0.154372 -0.502379
v 0.548612 0.371932 -0.479220
v 0.651893 0.235034 -0.344922
v 0.704837 -0.650671 0.132757
v 0.628677 -0.670609 0.415525
v 0.458331 -0.830916 0.237413
v 0.837167 -0.143239 0.783100
v 0.783620 -0.428915 0.627524
v 0.899025 -0.221227 0.416804
v 0.191612 -0.704822 0.731668
v 0.494702 -0.614356 0.744761
v 0.329230 -0.475106 1.006150
v 0.186569 -0.941421 0.246192
v 0.295122 -0.930618 -0.026208
v -0.153388 -0.697089 0.723842
v 0.018217 -0.855501 0.529795
v -0.293332 -1.052566 -0.026208
v -0.160136 -0.999963 0.262372
v -0.492051 -0.970398 0.279434
v 0.182780 -0.919240 -0.292477
v 0.437692 -0.789882 -0.277467
v -0.486676 -0.959712 -0.328630
v -0.157627 -0.985276 -0.310729
v 0.168889 -0.606674 -0.684766
v 0.018217 -0.815089 -0.557234
v -0.134815 -0.616864 -0.695077
v 0.538188 -0.564663 -0.402463
v 0.662587 -0.607917 -0.175391
v 0.227446 -0.305177 -0.720710
v 0.381813 -0.458347 -0.614518
v 0.633006 -0.141085 -0.335423
v 0.529411 -0.271806 -0.462820
v 0.484289 -0.062503 -0.486793
v 0.812100 -0.446517 -0.026208
v 0.754538 0.044130 -0.235381
v 0.810402 -0.174825 -0.161529
v 0.916094 -0.204037 0.127168
v 0.888528 0.044130 0.221029
v 0.354863 -0.163929 1.191788
v 0.686757 0.044130 1.055512
v 0.326112 0.234420 1.087769
v -0.666945 -0.758072 0.469580
v -0.438636 -0.587225 0.712996
v -0.720941 -0.412695 0.605108
v -0.387461 -0.516503 -0.682608
v -0.647708 -0.735549 -0.508076
v -0.680983 -0.387999 -0.623396
v 0.393631 0.044130 -0.633641
v 0.211637 -0.075411 -0.726010
v 0.222536 0.170406 -0.765443
v 0.838227 0.270775 0.113867
v 0.807219 0.262205 -0.160985
v 0.775608 0.512224 -0.026208
f 1 43 45
f 13 44 43
f 15 45 44
f 43 44 45
f 12 46 48
f 14 47 46
f 13 48 47
f 46 47 48
f 6 49 51
f 15 50 49
f 14 51 50
f 49 50 51
f 13 47 44
f 14 50 47
f 15 44 50
f 47 50 44
f 1 45 53
f 15 52 45
f 17 53 52
f 45 52 53
f 6 54 49
f 16 55 54
f 15 49 55
f 54 55 49
f 2 56 58
f 17 57 56
f 16 58 57
f 56 57 58
f 15 55 52
f 16 57 55
f 17 52 57
f 55 57 52
f 1 53 60
f 17 59 53
f 19 60 59
f 53 59 60
f 2 61 56
f 18 62 61
f 17 56 62
f 61 62 56
f 8 63 65
f 19 64 63
f 18 65 64
f 63 64 65
f 17 62 59
f 18 64 62
f 19 59 64
f 62 64 59
f 1 60 67
f 19 66 60
f 21 67 66
f 60 66 67
f 8 68 63
f 20 69 68
f 19 63 69
f 68 69 63
f 11 70 72
f 21 71 70
f 20 72 71
f 70 71 72
f 19 69 66
f 20 71 69
f 21 66 71
f 69 71 66
f 1 67 43
f 21 73 67
f 13 43 73
f 67 73 43
f 11 74 70
f 22 75 74
f 21 70 75
f 74 75 70
f 12 48 77
f 13 76 48
f 22 77 76
f 48 76 77
f 21 75 73
f 22 76 75
f 13 73 76
f 75 76 73
f 2 58 79
f 16 78 58
f 24 79 78
f 58 78 79
f 6 80 54
f 23 81 80
f 16 54 81
f 80 81 54
f 10 82 84
f 24 83 82
f 23 84 83
f 82 83 84
f 16 81 78
f 23 83 81
f 24 78 83
f 81 83 78
f 6 51 86
f 14 85 51
f 26 86 85
f 51 85 86
f 12 87 46
f 25 88 87
f 14 46 88
f 87 88 46
f 5 89 91
f 26 90 89
f 25 91 90
f 89 90 91
f 14 88 85
f 25 90 88
f 26 85 90
f 88 90 85
f 12 77 93
f 22 92 77
f 28 93 92
f 77 92 93
f 11 94 74
f 27 95 94
f 22 74 95
f 94 95 74
f 3 96 98
f 28 97 96
f 27 98 97
f 96 97 98
f 22 95 92
f 27 97 95
f 28 92 97
f 95 97 92
f 11 72 100
f 20 99 72
f 30 100 99
f 72 99 100
f 8 101 68
f 29 102 101
f 20 68 102
f 101 102 68
f 7 103 105
f 30 104 103
f 29 105 104
f 103 104 105
f 20 102 99
f 29 104 102
f 30 99 104
f 102 104 99
f 8 65 107
f 18 106 65
f 32 107 106
f 65 106 107
f 2 108 61
f 31 109 108
f 18 61 109
f 108 109 61
f 9 110 112
f 32 111 110
f 31 112 111
f 110 111 112
f 18 109 106
f 31 111 109
f 32 106 111
f 109 111 106
f 4 113 115
f 33 114 113
f 35 115 114
f 113 114 115
f 10 116 118
f 34 117 116
f 33 118 117
f 116 117 118
f 5 119 121
f 35 120 119
f 34 121 120
f 119 120 121
f 33 117 114
f 34 120 117
f 35 114 120
f 117 120 114
f 4 115 123
f 35 122 115
f 37 123 122
f 115 122 123
f 5 124 119
f 36 125 124
f 35 119 125
f 124 125 119
f 3 126 128
f 37 127 126
f 36 128 127
f 126 127 128
f 35 125 122
f 36 127 125
f 37 122 127
f 125 127 122
f 4 123 130
f 37 129 123
f 39 130 129
f 123 129 130
f 3 131 126
f 38 132 131
f 37 126 132
f 131 132 126
f 7 133 135
f 39 134 133
f 38 135 134
f 133 134 135
f 37 132 129
f 38 134 132
f 39 129 134
f 132 134 129
f 4 130 137
f 39 136 130
f 41 137 136
f 130 136 137
f 7 138 133
f 40 139 138
f 39 133 139
f 138 139 133
f 9 140 142
f 41 141 140
f 40 142 141
f 140 141 142
f 39 139 136
f 40 141 139
f 41 136 141
f 139 141 136
f 4 137 113
f 41 143 137
f 33 113 143
f 137 143 113
f 9 144 140
f 42 145 144
f 41 140 145
f 144 145 140
f 10 118 147
f 33 146 118
f 42 147 146
f 118 146 147
f 41 145 143
f 42 146 145
f 33 143 146
f 145 146 143
f 5 121 89
f 34 148 121
f 26 89 148
f 121 148 89
f 10 84 116
f 23 149 84
f 34 116 149
f 84 149 116
f 6 86 80
f 26 150 86
f 23 80 150
f 86 150 80
f 34 149 148
f 23 150 149
f 26 148 150
f 149 150 148
f 3 128 96
f 36 151 128
f 28 96 151
f 128 151 96
f 5 91 124
f 25 152 91
f 36 124 152
f 91 152 124
f 12 93 87
f 28 153 93
f 25 87 153
f 93 153 87
f 36 152 151
f 25 153 152
f 28 151 153
f 152 153 151
f 7 135 103
f 38 154 135
f 30 103 154
f 135 154 103
f 3 98 131
f 27 155 98
f 38 131 155
f 98 155 131
f 11 100 94
f 30 156 100
f 27 94 156
f 100 156 94
f 38 155 154
f 27 156 155
f 30 154 156
f 155 156 154
f 9 142 110
f 40 157 142
f 32 110 157
f 142 157 110
f 7 105 138
f 29 158 105
f 40 138 158
f 105 158 138
f 8 107 101
f 32 159 107
f 29 101 159
f 107 159 101
f 40 158 157
f 29 159 158
f 32 157 159
f 158 159 157
f 10 147 82
f 42 160 147
f 24 82 160
f 147 160 82
f 9 112 144
f 31 161 112
f 42 144 161
f 112 161 144
f 2 79 108
f 24 162 79
f 31 108 162
f 79 162 108
f 42 161 160
f 31 162 161
f 24 160 162
f 161 162 160
