# procedurally generated asteroid
v -0.521966 0.819795 0.009127
v 0.587330 0.963865 0.009127
v -0.517001 -0.822981 0.009127
v 0.538653 -0.896322 0.009127
v -0.011838 -0.518753 0.839410
v -0.011838 0.485412 0.803617
v -0.011838 -0.538594 -0.853261
v -0.011838 0.530051 -0.857590
v 0.884499 -0.005609 -0.544840
v 0.866508 -0.005609 0.551974
v -0.877680 -0.005609 -0.525993
v -0.895492 -0.005609 0.555255
v -0.894257 0.539756 0.346181
v -0.493614 0.292145 0.788658
v -0.278480 0.692469 0.440563
v 0.303942 0.821112 0.520069
v -0.011838 1.004034 0.009127
v 0.317042 0.855409 -0.523012
v -0.324919 0.814048 -0.497450
v -0.531991 0.315863 -0.832500
v -0.849467 0.512074 -0.310820
v -1.108254 -0.005609 0.009127
v 0.491926 0.305733 0.824233
v 0.892304 0.553181 0.354478
v -0.510358 -0.313712 0.815749
v -0.011838 -0.005609 0.973594
v -0.785023 -0.483464 -0.286204
v -0.821324 -0.505900 0.318323
v -0.011838 -0.005609 -1.032073
v -0.542303 -0.333455 -0.849185
v 0.874917 0.542435 -0.329583
v 0.500642 0.311120 -0.820083
v 0.864626 -0.547294 0.343906
v 0.460124 -0.297298 0.772776
v 0.297469 -0.815385 0.509596
v -0.320584 -0.813918 0.508689
v -0.011838 -0.998412 0.009127
v -0.286752 -0.725346 -0.435695
v 0.298081 -0.816987 -0.492333
v 0.494130 -0.318315 -0.809547
v 0.898510 -0.568235 -0.338595
v 1.087739 -0.005609 0.009127
v -0.709814 0.700683 0.170720
v -0.562787 0.639454 0.407798
v -0.407003 0.780069 0.245824
v -0.715326 0.155343 0.704332
v -0.694809 0.416490 0.592454
v -0.962522 0.280799 0.487284
v -0.152620 0.602476 0.624457
v -0.396502 0.525984 0.631527
v -0.254475 0.399474 0.814523
v -0.159875 0.861019 0.248657
v -0.275624 0.922959 0.009127
v 0.140678 0.653155 0.675739
v -0.011838 0.757468 0.480734
v 0.284427 1.037284 0.009127
v 0.151589 0.951108 0.273557
v 0.467949 0.948315 0.296511
v -0.176821 0.960220 -0.257822
v -0.444533 0.854687 -0.250051
v 0.468551 0.949511 -0.278618
v 0.161249 1.007657 -0.270933
v -0.175420 0.700959 -0.705860
v -0.011838 0.874469 -0.534792
v 0.153964 0.710543 -0.715559
v -0.603624 0.687267 -0.419094
v -0.715538 0.706475 -0.153792
v -0.278554 0.439673 -0.876196
v -0.443529 0.590974 -0.689365
v -0.897750 0.261285 -0.436453
v -0.711108 0.426563 -0.588122
v -0.738535 0.160653 -0.709015
v -0.954868 0.577216 0.009127
v -1.008923 -0.005609 -0.274125
v -1.064653 0.285382 -0.170716
v -1.150699 0.309164 0.203667
v -1.071719 -0.005609 0.310217
v 0.642478 0.760477 0.482594
v 0.785549 0.801277 0.193735
v 0.243632 0.420896 0.857115
v 0.427721 0.601846 0.720348
v 0.910953 0.272395 0.473254
v 0.724113 0.449233 0.637704
v 0.700640 0.157399 0.713215
v -0.267540 0.152423 0.934266
v -0.011838 0.257713 0.936061
v -0.715377 -0.166573 0.704382
v -0.532672 -0.005609 0.851854
v -0.011838 -0.268497 0.934530
v -0.270820 -0.165670 0.946135
v -0.269243 -0.435347 0.863541
v -0.986724 -0.275061 0.175657
v -0.887016 -0.269270 0.449307
v -0.870465 -0.264284 -0.422729
v -0.970753 -0.270647 -0.154676
v -0.697354 -0.699293 0.167835
v -0.851567 -0.524591 0.009127
v -0.661323 -0.662833 -0.141240
v -0.580803 -0.005609 -0.911479
v -0.740748 -0.172378 -0.711202
v -0.011838 0.274370 -0.976441
v -0.290531 0.166633 -0.999196
v -0.283255 -0.458739 -0.891798
v -0.299155 -0.183181 -1.030396
v -0.011838 -0.290832 -0.994897
v 0.431567 0.607161 -0.708317
v 0.253348 0.437118 -0.871115
v 0.773047 0.788626 -0.172588
v 0.628022 0.743552 -0.453880
v 0.714057 0.160469 -0.708221
v 0.713872 0.442903 -0.610703
v 0.909029 0.271815 -0.454033
v 0.742894 -0.769333 0.183860
v 0.591238 -0.711702 0.445516
v 0.430686 -0.885446 0.274191
v 0.678110 -0.163463 0.690950
v 0.678620 -0.432336 0.598848
v 0.893288 -0.278292 0.464369
v 0.146410 -0.689132 0.700792
v 0.403823 -0.580038 0.681679
v 0.234352 -0.416622 0.826312
v 0.151079 -0.959341 0.272731
v 0.263472 -0.974739 0.009127
v -0.171635 -0.695829 0.707570
v -0.011838 -0.854901 0.534018
v -0.278150 -0.943067 0.009127
v -0.173836 -0.953966 0.271246
v -0.442827 -0.862514 0.267282
v 0.149647 -0.950957 -0.252161
v 0.432759 -0.889568 -0.257179
v -0.401966 -0.781273 -0.224554
v -0.166160 -0.909027 -0.240572
v 0.148034 -0.696147 -0.689638
v -0.011838 -0.827639 -0.498915
v -0.165997 -0.671477 -0.664674
v 0.604495 -0.727224 -0.436856
v 0.757895 -0.784513 -0.169080
v 0.250521 -0.443616 -0.861729
v 0.417502 -0.598942 -0.685559
v 0.922412 -0.287066 -0.460765
v 0.705445 -0.448915 -0.603506
v 0.710314 -0.170831 -0.704523
v 0.975051 -0.615540 0.009127
v 1.034767 -0.005609 -0.288192
v 1.068679 -0.304257 -0.175448
v 1.048093 -0.298567 0.190184
v 1.022277 -0.005609 0.302897
v 0.233688 -0.157352 0.897445
v 0.491695 -0.005609 0.823860
v 0.241680 0.151073 0.926362
v -0.598853 -0.692899 0.433895
v -0.436544 -0.592540 0.696316
v -0.700571 -0.431270 0.597376
v -0.413155 -0.560217 -0.640219
v -0.527821 -0.609733 -0.364243
v -0.679111 -0.418007 -0.560793
v 0.522241 -0.005609 -0.855031
v 0.255044 -0.170551 -0.956460
v 0.255060 0.159342 -0.956517
v 1.028627 0.281968 0.186859
v 1.027352 0.281615 -0.168388
v 0.946346 0.586581 0.009127
f 1 43 45
f 13 44 43
f 15 45 44
f 43 44 45
f 12 46 48
f 14 47 46
f 13 48 47
f 46 47 48
f 6 49 51
f 15 50 49
f 14 51 50
f 49 50 51
f 13 47 44
f 14 50 47
f 15 44 50
f 47 50 44
f 1 45 53
f 15 52 45
f 17 53 52
f 45 52 53
f 6 54 49
f 16 55 54
f 15 49 55
f 54 55 49
f 2 56 58
f 17 57 56
f 16 58 57
f 56 57 58
f 15 55 52
f 16 57 55
f 17 52 57
f 55 57 52
f 1 53 60
f 17 59 53
f 19 60 59
f 53 59 60
f 2 61 56
f 18 62 61
f 17 56 62
f 61 62 56
f 8 63 65
f 19 64 63
f 18 65 64
f 63 64 65
f 17 62 59
f 18 64 62
f 19 59 64
f 62 64 59
f 1 60 67
f 19 66 60
f 21 67 66
f 60 66 67
f 8 68 63
f 20 69 68
f 19 63 69
f 68 69 63
f 11 70 72
f 21 71 70
f 20 72 71
f 70 71 72
f 19 69 66
f 20 71 69
f 21 66 71
f 69 71 66
f 1 67 43
f 21 73 67
f 13 43 73
f 67 73 43
f 11 74 70
f 22 75 74
f 21 70 75
f 74 75 70
f 12 48 77
f 13 76 48
f 22 77 76
f 48 76 77
f 21 75 73
f 22 76 75
f 13 73 76
f 75 76 73
f 2 58 79
f 16 78 58
f 24 79 78
f 58 78 79
f 6 80 54
f 23 81 80
f 16 54 81
f 80 81 54
f 10 82 84
f 24 83 82
f 23 84 83
f 82 83 84
f 16 81 78
f 23 83 81
f 24 78 83
f 81 83 78
f 6 51 86
f 14 85 51
f 26 86 85
f 51 85 86
f 12 87 46
f 25 88 87
f 14 46 88
f 87 88 46
f 5 89 91
f 26 90 89
f 25 91 90
f 89 90 91
f 14 88 85
f 25 90 88
f 26 85 90
f 88 90 85
f 12 77 93
f 22 92 77
f 28 93 92
f 77 92 93
f 11 94 74
f 27 95 94
f 22 74 95
f 94 95 74
f 3 96 98
f 28 97 96
f 27 98 97
f 96 97 98
f 22 95 92
f 27 97 95
f 28 92 97
f 95 97 92
f 11 72 100
f 20 99 72
f 30 100 99
f 72 99 100
f 8 101 68
f 29 102 101
f 20 68 102
f 101 102 68
f 7 103 105
f 30 104 103
f 29 105 104
f 103 104 105
f 20 102 99
f 29 104 102
f 30 99 104
f 102 104 99
f 8 65 107
f 18 106 65
f 32 107 106
f 65 106 107
f 2 108 61
f 31 109 108
f 18 61 109
f 108 109 61
f 9 110 112
f 32 111 110
f 31 112 111
f 110 111 112
f 18 109 106
f 31 111 109
f 32 106 111
f 109 111 106
f 4 113 115
f 33 114 113
f 35 115 114
f 113 114 115
f 10 116 118
f 34 117 116
f 33 118 117
f 116 117 118
f 5 119 121
f 35 120 119
f 34 121 120
f 119 120 121
f 33 117 114
f 34 120 117
f 35 114 120
f 117 120 114
f 4 115 123
f 35 122 115
f 37 123 122
f 115 122 123
f 5 124 119
f 36 125 124
f 35 119 125
f 124 125 119
f 3 126 128
f 37 127 126
f 36 128 127
f 126 127 128
f 35 125 122
f 36 127 125
f 37 122 127
f 125 127 122
f 4 123 130
f 37 129 123
f 39 130 129
f 123 129 130
f 3 131 126
f 38 132 131
f 37 126 132
f 131 132 126
f 7 133 135
f 39 134 133
f 38 135 134
f 133 134 135
f 37 132 129
f 38 134 132
f 39 129 134
f 132 134 129
f 4 130 137
f 39 136 130
f 41 137 136
f 130 136 137
f 7 138 133
f 40 139 138
f 39 133 139
f 138 139 133
f 9 140 142
f 41 141 140
f 40 142 141
f 140 141 142
f 39 139 136
f 40 141 139
f 41 136 141
f 139 141 136
f 4 137 113
f 41 143 137
f 33 113 143
f 137 143 113
f 9 144 140
f 42 145 144
f 41 140 145
f 144 145 140
f 10 118 147
f 33 146 118
f 42 147 146
f 118 146 147
f 41 145 143
f 42 146 145
f 33 143 146
f 145 146 143
f 5 121 89
f 34 148 121
f 26 89 148
f 121 148 89
f 10 84 116
f 23 149 84
f 34 116 149
f 84 149 116
f 6 86 80
f 26 150 86
f 23 80 150
f 86 150 80
f 34 149 148
f 23 150 149
f 26 148 150
f 149 150 148
f 3 128 96
f 36 151 128
f 28 96 151
f 128 151 96
f 5 91 124
f 25 152 91
f 36 124 152
f 91 152 124
f 12 93 87
f 28 153 93
f 25 87 153
f 93 153 87
f 36 152 151
f 25 153 152
f 28 151 153
f 152 153 151
f 7 135 103
f 38 154 135
f 30 103 154
f 135 154 103
f 3 98 131
f 27 155 98
f 38 131 155
f 98 155 131
f 11 100 94
f 30 156 100
f 27 94 156
f 100 156 94
f 38 155 154
f 27 156 155
f 30 154 156
f 155 156 154
f 9 142 110
f 40 157 142
f 32 110 157
f 142 157 110
f 7 105 138
f 29 158 105
f 40 138 158
f 105 158 138
f 8 107 101
f 32 159 107
f 29 101 159
f 107 159 101
f 40 158 157
f 29 159 158
f 32 157 159
f 158 159 157
f 10 147 82
f 42 160 147
f 24 82 160
f 147 160 82
f 9 112 144
f 31 161 112
f 42 144 161
f 112 161 144
f 2 79 108
f 24 162 79
f 31 108 162
f 79 162 108
f 42 161 160
f 31 162 161
f 24 160 162
f 161 162 160
