# procedurally generated asteroid
v -0.376947 0.706517 0.017909
v 0.459055 0.758439 0.017909
v -0.556596 -0.884918 0.017909
v 0.610518 -0.891236 0.017909
v 0.025009 -0.444581 0.828089
v 0.025009 0.511557 0.754792
v 0.025009 -0.554500 -0.970124
v 0.025009 0.505717 -0.709525
v 0.792095 0.056138 -0.456176
v 0.721713 0.056138 0.448496
v -0.809908 0.056138 -0.498098
v -0.913084 0.056138 0.597682
v -0.682856 0.493622 0.288289
v -0.479025 0.367648 0.833454
v -0.247425 0.769379 0.458716
v 0.271615 0.701761 0.416926
v 0.025009 0.940627 0.017909
v 0.311200 0.805397 -0.445159
v -0.240201 0.750467 -0.411210
v -0.417008 0.329319 -0.697288
v -0.696724 0.502193 -0.257768
v -0.925252 0.056138 0.017909
v 0.376068 0.273104 0.585935
v 0.617193 0.422128 0.244103
v -0.494932 -0.265203 0.859191
v 0.025009 0.056138 0.924191
v -0.837943 -0.477196 -0.311709
v -0.799447 -0.453404 0.332823
v 0.025009 0.056138 -0.976368
v -0.561552 -0.306377 -0.931167
v 0.693727 0.469429 -0.237519
v 0.503951 0.352141 -0.757036
v 0.805324 -0.426123 0.315963
v 0.484471 -0.227825 0.761334
v 0.361417 -0.824591 0.562230
v -0.288969 -0.765866 0.525936
v 0.025009 -1.100809 0.017909
v -0.366740 -0.969474 -0.615954
v 0.367627 -0.840848 -0.536458
v 0.520342 -0.249995 -0.783557
v 0.811350 -0.429848 -0.282446
v 0.787228 0.056138 0.017909
v -0.496848 0.584213 0.138728
v -0.475989 0.642716 0.380434
v -0.326526 0.755068 0.228473
v -0.747405 0.232859 0.781229
v -0.647442 0.471735 0.592251
v -0.840786 0.316972 0.453370
v -0.118824 0.677400 0.646573
v -0.372598 0.605617 0.661251
v -0.218446 0.462585 0.826017
v -0.115483 0.878593 0.245230
v -0.208658 0.878678 0.017909
v 0.156628 0.624646 0.593191
v 0.025009 0.786786 0.469474
v 0.260037 0.883472 0.017909
v 0.162081 0.858572 0.239696
v 0.372332 0.746695 0.225950
v -0.121835 0.915776 -0.219689
v -0.344592 0.790988 -0.203475
v 0.408750 0.819103 -0.211945
v 0.172411 0.919048 -0.220593
v -0.103934 0.613083 -0.545671
v 0.025009 0.826070 -0.457935
v 0.171906 0.690636 -0.624148
v -0.481637 0.649329 -0.348703
v -0.525011 0.612711 -0.109430
v -0.180801 0.399736 -0.665242
v -0.307394 0.515508 -0.519930
v -0.790731 0.301892 -0.392376
v -0.600215 0.442548 -0.516096
v -0.662255 0.213378 -0.661263
v -0.679705 0.491675 0.017909
v -0.881969 0.056138 -0.239744
v -0.854900 0.299339 -0.132397
v -0.869099 0.303263 0.170641
v -0.939188 0.056138 0.291817
v 0.467727 0.574481 0.338263
v 0.559038 0.596530 0.141546
v 0.224520 0.389221 0.680153
v 0.338626 0.489546 0.525352
v 0.667637 0.249739 0.341126
v 0.517951 0.360793 0.438932
v 0.550671 0.176405 0.537382
v -0.227382 0.212124 0.931069
v 0.025009 0.296563 0.864242
v -0.774505 -0.126784 0.808009
v -0.542490 0.056138 0.936141
v 0.025009 -0.197688 0.911414
v -0.229199 -0.100971 0.937640
v -0.225089 -0.361399 0.848066
v -0.913757 -0.203331 0.178270
v -0.887376 -0.218732 0.476803
v -0.847952 -0.206855 -0.421156
v -0.892402 -0.197428 -0.138803
v -0.699876 -0.677383 0.185732
v -0.841031 -0.479104 0.017909
v -0.743974 -0.722006 -0.160123
v -0.524947 0.056138 -0.871938
v -0.729114 -0.116399 -0.727334
v 0.025009 0.308559 -0.870649
v -0.224108 0.210101 -0.883405
v -0.288312 -0.466951 -1.022109
v -0.261890 -0.121175 -1.020102
v 0.025009 -0.236370 -1.011761
v 0.426903 0.611542 -0.632369
v 0.270776 0.466445 -0.797874
v 0.597790 0.635744 -0.114700
v 0.552537 0.673778 -0.363814
v 0.683080 0.206699 -0.632414
v 0.655153 0.445589 -0.520298
v 0.758292 0.277051 -0.350904
v 0.744830 -0.672259 0.184560
v 0.636411 -0.659704 0.460324
v 0.528179 -0.944278 0.319300
v 0.638252 -0.084167 0.623932
v 0.681235 -0.349432 0.578393
v 0.800651 -0.177536 0.408027
v 0.185207 -0.635813 0.718104
v 0.445027 -0.524314 0.697514
v 0.270496 -0.353702 0.832764
v 0.216281 -1.063590 0.327394
v 0.348029 -1.080939 0.017909
v -0.132668 -0.624919 0.707081
v 0.025009 -0.836133 0.569363
v -0.282632 -1.026801 0.017909
v -0.151603 -0.977763 0.303672
v -0.432086 -0.852670 0.291701
v 0.212147 -1.039389 -0.284887
v 0.499280 -0.886820 -0.266171
v -0.493940 -0.975650 -0.292932
v -0.168467 -1.076489 -0.295141
v 0.209232 -0.739586 -0.787295
v 0.025009 -0.973083 -0.618184
v -0.177235 -0.817420 -0.866056
v 0.631101 -0.653487 -0.420663
v 0.734580 -0.661888 -0.146369
v 0.298623 -0.400660 -0.890309
v 0.470574 -0.559618 -0.703030
v 0.826339 -0.185275 -0.385128
v 0.702479 -0.362562 -0.560719
v 0.697283 -0.097672 -0.646450
v 0.844861 -0.450559 0.017909
v 0.810745 0.056138 -0.205302
v 0.862761 -0.175411 -0.125196
v 0.854325 -0.173079 0.159573
v 0.780425 0.056138 0.232507
v 0.258593 -0.088225 0.863024
v 0.444663 0.056138 0.696924
v 0.235054 0.185953 0.777858
v -0.574548 -0.645835 0.451752
v -0.397113 -0.527221 0.700917
v -0.698794 -0.391197 0.636110
v -0.514361 -0.689253 -0.854810
v -0.685514 -0.775757 -0.496230
v -0.765125 -0.432192 -0.656946
v 0.532395 0.056138 -0.803059
v 0.286727 -0.105613 -0.928996
v 0.278940 0.213076 -0.900824
v 0.703860 0.243768 0.133871
v 0.733905 0.252072 -0.103185
v 0.661000 0.449202 0.017909
f 1 43 45
f 13 44 43
f 15 45 44
f 43 44 45
f 12 46 48
f 14 47 46
f 13 48 47
f 46 47 48
f 6 49 51
f 15 50 49
f 14 51 50
f 49 50 51
f 13 47 44
f 14 50 47
f 15 44 50
f 47 50 44
f 1 45 53
f 15 52 45
f 17 53 52
f 45 52 53
f 6 54 49
f 16 55 54
f 15 49 55
f 54 55 49
f 2 56 58
f 17 57 56
f 16 58 57
f 56 57 58
f 15 55 52
f 16 57 55
f 17 52 57
f 55 57 52
f 1 53 60
f 17 59 53
f 19 60 59
f 53 59 60
f 2 61 56
f 18 62 61
f 17 56 62
f 61 62 56
f 8 63 65
f 19 64 63
f 18 65 64
f 63 64 65
f 17 62 59
f 18 64 62
f 19 59 64
f 62 64 59
f 1 60 67
f 19 66 60
f 21 67 66
f 60 66 67
f 8 68 63
f 20 69 68
f 19 63 69
f 68 69 63
f 11 70 72
f 21 71 70
f 20 72 71
f 70 71 72
f 19 69 66
f 20 71 69
f 21 66 71
f 69 71 66
f 1 67 43
f 21 73 67
f 13 43 73
f 67 73 43
f 11 74 70
f 22 75 74
f 21 70 75
f 74 75 70
f 12 48 77
f 13 76 48
f 22 77 76
f 48 76 77
f 21 75 73
f 22 76 75
f 13 73 76
f 75 76 73
f 2 58 79
f 16 78 58
f 24 79 78
f 58 78 79
f 6 80 54
f 23 81 80
f 16 54 81
f 80 81 54
f 10 82 84
f 24 83 82
f 23 84 83
f 82 83 84
f 16 81 78
f 23 83 81
f 24 78 83
f 81 83 78
f 6 51 86
f 14 85 51
f 26 86 85
f 51 85 86
f 12 87 46
f 25 88 87
f 14 46 88
f 87 88 46
f 5 89 91
f 26 90 89
f 25 91 90
f 89 90 91
f 14 88 85
f 25 90 88
f 26 85 90
f 88 90 85
f 12 77 93
f 22 92 77
f 28 93 92
f 77 92 93
f 11 94 74
f 27 95 94
f 22 74 95
f 94 95 74
f 3 96 98
f 28 97 96
f 27 98 97
f 96 97 98
f 22 95 92
f 27 97 95
f 28 92 97
f 95 97 92
f 11 72 100
f 20 99 72
f 30 100 99
f 72 99 100
f 8 101 68
f 29 102 101
f 20 68 102
f 101 102 68
f 7 103 105
f 30 104 103
f 29 105 104
f 103 104 105
f 20 102 99
f 29 104 102
f 30 99 104
f 102 104 99
f 8 65 107
f 18 106 65
f 32 107 106
f 65 106 107
f 2 108 61
f 31 109 108
f 18 61 109
f 108 109 61
f 9 110 112
f 32 111 110
f 31 112 111
f 110 111 112
f 18 109 106
f 31 111 109
f 32 106 111
f 109 111 106
f 4 113 115
f 33 114 113
f 35 115 114
f 113 114 115
f 10 116 118
f 34 117 116
f 33 118 117
f 116 117 118
f 5 119 121
f 35 120 119
f 34 121 120
f 119 120 121
f 33 117 114
f 34 120 117
f 35 114 120
f 117 120 114
f 4 115 123
f 35 122 115
f 37 123 122
f 115 122 123
f 5 124 119
f 36 125 124
f 35 119 125
f 124 125 119
f 3 126 128
f 37 127 126
f 36 128 127
f 126 127 128
f 35 125 122
f 36 127 125
f 37 122 127
f 125 127 122
f 4 123 130
f 37 129 123
f 39 130 129
f 123 129 130
f 3 131 126
f 38 132 131
f 37 126 132
f 131 132 126
f 7 133 135
f 39 134 133
f 38 135 134
f 133 134 135
f 37 132 129
f 38 134 132
f 39 129 134
f 132 134 129
f 4 130 137
f 39 136 130
f 41 137 136
f 130 136 137
f 7 138 133
f 40 139 138
f 39 133 139
f 138 139 133
f 9 140 142
f 41 141 140
f 40 142 141
f 140 141 142
f 39 139 136
f 40 141 139
f 41 136 141
f 139 141 136
f 4 137 113
f 41 143 137
f 33 113 143
f 137 143 113
f 9 144 140
f 42 145 144
f 41 140 145
f 144 145 140
f 10 118 147
f 33 146 118
f 42 147 146
f 118 146 147
f 41 145 143
f 42 146 145
f 33 143 146
f 145 146 143
f 5 121 89
f 34 148 121
f 26 89 148
f 121 148 89
f 10 84 116
f 23 149 84
f 34 116 149
f 84 149 116
f 6 86 80
f 26 150 86
f 23 80 150
f 86 150 80
f 34 149 148
f 23 150 149
f 26 148 150
f 149 150 148
f 3 128 96
f 36 151 128
f 28 96 151
f 128 151 96
f 5 91 124
f 25 152 91
f 36 124 152
f 91 152 124
f 12 93 87
f 28 153 93
f 25 87 153
f 93 153 87
f 36 152 151
f 25 153 152
f 28 151 153
f 152 153 151
f 7 135 103
f 38 154 135
f 30 103 154
f 135 154 103
f 3 98 131
f 27 155 98
f 38 131 155
f 98 155 131
f 11 100 94
f 30 156 100
f 27 94 156
f 100 156 94
f 38 155 154
f 27 156 155
f 30 154 156
f 155 156 154
f 9 142 110
f 40 157 142
f 32 110 157
f 142 157 110
f 7 105 138
f 29 158 105
f 40 138 158
f 105 158 138
f 8 107 101
f 32 159 107
f 29 101 159
f 107 159 101
f 40 158 157
f 29 159 158
f 32 157 159
f 158 159 157
f 10 147 82
f 42 160 147
f 24 82 160
f 147 160 82
f 9 112 144
f 31 161 112
f 42 144 161
f 112 161 144
f 2 79 108
f 24 162 79
f 31 108 162
f 79 162 108
f 42 161 160
f 31 162 161
f 24 160 162
f 161 162 160
