# procedurally generated asteroid
v -0.571707 0.910761 0.006910
v 0.478133 0.790969 0.006910
v -0.496846 -0.786581 0.006910
v 0.489152 -0.805746 0.006910
v -0.009769 -0.501031 0.820065
v -0.009769 0.524907 0.853758
v -0.009769 -0.544465 -0.876523
v -0.009769 0.491795 -0.786361
v 0.915153 0.001526 -0.564724
v 0.864426 0.001526 0.547192
v -0.879224 0.001526 -0.530443
v -0.826544 0.001526 0.511704
v -0.839464 0.514306 0.323825
v -0.500866 0.305041 0.801521
v -0.321937 0.818792 0.512008
v 0.297380 0.805653 0.503887
v -0.009769 0.939656 0.006910
v 0.229515 0.627981 -0.380261
v -0.306949 0.779554 -0.473938
v -0.516977 0.314998 -0.813769
v -0.867278 0.531496 -0.320630
v -0.983214 0.001526 0.006910
v 0.489163 0.309883 0.814199
v 0.802264 0.503391 0.317079
v -0.475618 -0.286384 0.760669
v -0.009769 0.001526 0.987776
v -0.743597 -0.452004 -0.273387
v -0.736163 -0.447410 0.284368
v -0.009769 0.001526 -1.001851
v -0.552280 -0.333764 -0.870891
v 0.781150 0.490342 -0.295195
v 0.473582 0.300254 -0.775169
v 0.773859 -0.482782 0.306229
v 0.483160 -0.303121 0.804486
v 0.283055 -0.765096 0.480709
v -0.291009 -0.734770 0.461966
v -0.009769 -0.950727 0.006910
v -0.339132 -0.860756 -0.526010
v 0.298906 -0.806597 -0.492538
v 0.495183 -0.310551 -0.810120
v 0.934611 -0.582132 -0.353811
v 1.221895 0.001526 0.006910
v -0.747665 0.748213 0.177745
v -0.612063 0.706704 0.442734
v -0.459654 0.896000 0.276383
v -0.691514 0.157504 0.680627
v -0.695053 0.425055 0.592211
v -0.863991 0.258874 0.436550
v -0.170253 0.694708 0.708350
v -0.434601 0.588630 0.694302
v -0.267235 0.431364 0.861524
v -0.172715 0.955429 0.270562
v -0.285264 0.971307 0.006910
v 0.150510 0.693828 0.707460
v -0.009769 0.851067 0.531955
v 0.237832 0.873120 0.006910
v 0.148648 0.928917 0.263234
v 0.412979 0.842045 0.260129
v -0.159997 0.880974 -0.236164
v -0.458928 0.894554 -0.262128
v 0.350632 0.718086 -0.208965
v 0.122668 0.776830 -0.207379
v -0.157080 0.637809 -0.636954
v -0.009769 0.699658 -0.424559
v 0.124169 0.580053 -0.578510
v -0.628159 0.725550 -0.440562
v -0.763357 0.764092 -0.167559
v -0.265599 0.428633 -0.842274
v -0.434085 0.587917 -0.679648
v -0.898265 0.269199 -0.439969
v -0.720234 0.440618 -0.599900
v -0.733206 0.167042 -0.708009
v -0.910928 0.558473 0.006910
v -0.960953 0.001526 -0.263302
v -0.983134 0.270558 -0.159361
v -0.967562 0.266254 0.170520
v -0.941194 0.001526 0.271508
v 0.574635 0.685758 0.429788
v 0.670954 0.690360 0.164509
v 0.249221 0.433909 0.866585
v 0.414744 0.588189 0.693786
v 0.870597 0.266750 0.449700
v 0.678992 0.427204 0.595182
v 0.693924 0.162525 0.702317
v -0.266997 0.160502 0.937569
v -0.009769 0.272028 0.959116
v -0.669756 -0.149473 0.659126
v -0.513713 0.001526 0.822308
v -0.009769 -0.263239 0.938924
v -0.261737 -0.154198 0.918538
v -0.253838 -0.405945 0.817054
v -0.884645 -0.240283 0.156356
v -0.813578 -0.240633 0.411194
v -0.852056 -0.252225 -0.416727
v -0.873004 -0.237066 -0.140548
v -0.624424 -0.620452 0.149213
v -0.738564 -0.448893 0.006910
v -0.638486 -0.634681 -0.138649
v -0.557616 0.001526 -0.879524
v -0.751283 -0.168125 -0.725874
v -0.009769 0.270731 -0.940730
v -0.275416 0.165705 -0.954208
v -0.288859 -0.464414 -0.919484
v -0.283774 -0.167818 -0.984450
v -0.009769 -0.278711 -0.979566
v 0.361852 0.515095 -0.594387
v 0.233766 0.408108 -0.801466
v 0.640457 0.659500 -0.143629
v 0.503648 0.602645 -0.364602
v 0.695128 0.162801 -0.689689
v 0.649902 0.409226 -0.556517
v 0.882529 0.270345 -0.441881
v 0.627605 -0.643442 0.154473
v 0.523132 -0.622405 0.392521
v 0.392755 -0.798784 0.248015
v 0.690356 -0.158656 0.698792
v 0.652203 -0.407595 0.572302
v 0.883307 -0.267526 0.456092
v 0.144073 -0.662971 0.679324
v 0.400198 -0.565035 0.670251
v 0.243930 -0.422023 0.849022
v 0.143562 -0.896088 0.255004
v 0.251694 -0.918864 0.006910
v -0.159297 -0.644332 0.660463
v -0.009769 -0.795569 0.499542
v -0.268540 -0.909385 0.006910
v -0.159810 -0.876828 0.249681
v -0.402995 -0.780295 0.242445
v 0.149556 -0.931179 -0.250884
v 0.417617 -0.848214 -0.249088
v -0.444984 -0.863778 -0.253776
v -0.172118 -0.948880 -0.255776
v 0.153684 -0.704483 -0.707512
v -0.009769 -0.869725 -0.531553
v -0.181207 -0.738970 -0.742410
v 0.594368 -0.705809 -0.430248
v 0.705893 -0.722662 -0.158778
v 0.253102 -0.437336 -0.865647
v 0.419380 -0.591544 -0.687469
v 1.011315 -0.306091 -0.506656
v 0.719946 -0.449462 -0.616342
v 0.718472 -0.165089 -0.712757
v 0.948957 -0.590999 0.006910
v 1.151202 0.001526 -0.322898
v 1.251473 -0.347072 -0.208536
v 1.137298 -0.315515 0.202852
v 1.068070 0.001526 0.313101
v 0.249327 -0.158604 0.944329
v 0.513586 0.001526 0.853716
v 0.251215 0.162824 0.951160
v -0.537288 -0.616103 0.388626
v -0.398239 -0.535326 0.635467
v -0.638978 -0.387346 0.544318
v -0.478442 -0.646164 -0.751419
v -0.612689 -0.704384 -0.429367
v -0.733862 -0.445988 -0.611540
v 0.516193 0.001526 -0.844115
v 0.254520 -0.161813 -0.949298
v 0.249925 0.162027 -0.932674
v 1.000479 0.280752 0.179481
v 1.017053 0.285333 -0.168493
v 0.840178 0.526823 0.006910
f 1 43 45
f 13 44 43
f 15 45 44
f 43 44 45
f 12 46 48
f 14 47 46
f 13 48 47
f 46 47 48
f 6 49 51
f 15 50 49
f 14 51 50
f 49 50 51
f 13 47 44
f 14 50 47
f 15 44 50
f 47 50 44
f 1 45 53
f 15 52 45
f 17 53 52
f 45 52 53
f 6 54 49
f 16 55 54
f 15 49 55
f 54 55 49
f 2 56 58
f 17 57 56
f 16 58 57
f 56 57 58
f 15 55 52
f 16 57 55
f 17 52 57
f 55 57 52
f 1 53 60
f 17 59 53
f 19 60 59
f 53 59 60
f 2 61 56
f 18 62 61
f 17 56 62
f 61 62 56
f 8 63 65
f 19 64 63
f 18 65 64
f 63 64 65
f 17 62 59
f 18 64 62
f 19 59 64
f 62 64 59
f 1 60 67
f 19 66 60
f 21 67 66
f 60 66 67
f 8 68 63
f 20 69 68
f 19 63 69
f 68 69 63
f 11 70 72
f 21 71 70
f 20 72 71
f 70 71 72
f 19 69 66
f 20 71 69
f 21 66 71
f 69 71 66
f 1 67 43
f 21 73 67
f 13 43 73
f 67 73 43
f 11 74 70
f 22 75 74
f 21 70 75
f 74 75 70
f 12 48 77
f 13 76 48
f 22 77 76
f 48 76 77
f 21 75 73
f 22 76 75
f 13 73 76
f 75 76 73
f 2 58 79
f 16 78 58
f 24 79 78
f 58 78 79
f 6 80 54
f 23 81 80
f 16 54 81
f 80 81 54
f 10 82 84
f 24 83 82
f 23 84 83
f 82 83 84
f 16 81 78
f 23 83 81
f 24 78 83
f 81 83 78
f 6 51 86
f 14 85 51
f 26 86 85
f 51 85 86
f 12 87 46
f 25 88 87
f 14 46 88
f 87 88 46
f 5 89 91
f 26 90 89
f 25 91 90
f 89 90 91
f 14 88 85
f 25 90 88
f 26 85 90
f 88 90 85
f 12 77 93
f 22 92 77
f 28 93 92
f 77 92 93
f 11 94 74
f 27 95 94
f 22 74 95
f 94 95 74
f 3 96 98
f 28 97 96
f 27 98 97
f 96 97 98
f 22 95 92
f 27 97 95
f 28 92 97
f 95 97 92
f 11 72 100
f 20 99 72
f 30 100 99
f 72 99 100
f 8 101 68
f 29 102 101
f 20 68 102
f 101 102 68
f 7 103 105
f 30 104 103
f 29 105 104
f 103 104 105
f 20 102 99
f 29 104 102
f 30 99 104
f 102 104 99
f 8 65 107
f 18 106 65
f 32 107 106
f 65 106 107
f 2 108 61
f 31 109 108
f 18 61 109
f 108 109 61
f 9 110 112
f 32 111 110
f 31 112 111
f 110 111 112
f 18 109 106
f 31 111 109
f 32 106 111
f 109 111 106
f 4 113 115
f 33 114 113
f 35 115 114
f 113 114 115
f 10 116 118
f 34 117 116
f 33 118 117
f 116 117 118
f 5 119 121
f 35 120 119
f 34 121 120
f 119 120 121
f 33 117 114
f 34 120 117
f 35 114 120
f 117 120 114
f 4 115 123
f 35 122 115
f 37 123 122
f 115 122 123
f 5 124 119
f 36 125 124
f 35 119 125
f 124 125 119
f 3 126 128
f 37 127 126
f 36 128 127
f 126 127 128
f 35 125 122
f 36 127 125
f 37 122 127
f 125 127 122
f 4 123 130
f 37 129 123
f 39 130 129
f 123 129 130
f 3 131 126
f 38 132 131
f 37 126 132
f 131 132 126
f 7 133 135
f 39 134 133
f 38 135 134
f 133 134 135
f 37 132 129
f 38 134 132
f 39 129 134
f 132 134 129
f 4 130 137
f 39 136 130
f 41 137 136
f 130 136 137
f 7 138 133
f 40 139 138
f 39 133 139
f 138 139 133
f 9 140 142
f 41 141 140
f 40 142 141
f 140 141 142
f 39 139 136
f 40 141 139
f 41 136 141
f 139 141 136
f 4 137 113
f 41 143 137
f 33 113 143
f 137 143 113
f 9 144 140
f 42 145 144
f 41 140 145
f 144 145 140
f 10 118 147
f 33 146 118
f 42 147 146
f 118 146 147
f 41 145 143
f 42 146 145
f 33 143 146
f 145 146 143
f 5 121 89
f 34 148 121
f 26 89 148
f 121 148 89
f 10 84 116
f 23 149 84
f 34 116 149
f 84 149 116
f 6 86 80
f 26 150 86
f 23 80 150
f 86 150 80
f 34 149 148
f 23 150 149
f 26 148 150
f 149 150 148
f 3 128 96
f 36 151 128
f 28 96 151
f 128 151 96
f 5 91 124
f 25 152 91
f 36 124 152
f 91 152 124
f 12 93 87
f 28 153 93
f 25 87 153
f 93 153 87
f 36 152 151
f 25 153 152
f 28 151 153
f 152 153 151
f 7 135 103
f 38 154 135
f 30 103 154
f 135 154 103
f 3 98 131
f 27 155 98
f 38 131 155
f 98 155 131
f 11 100 94
f 30 156 100
f 27 94 156
f 100 156 94
f 38 155 154
f 27 156 155
f 30 154 156
f 155 156 154
f 9 142 110
f 40 157 142
f 32 110 157
f 142 157 110
f 7 105 138
f 29 158 105
f 40 138 158
f 105 158 138
f 8 107 101
f 32 159 107
f 29 101 159
f 107 159 101
f 40 158 157
f 29 159 158
f 32 157 159
f 158 159 157
f 10 147 82
f 42 160 147
f 24 82 160
f 147 160 82
f 9 112 144
f 31 161 112
f 42 144 161
f 112 161 144
f 2 79 108
f 24 162 79
f 31 108 162
f 79 162 108
f 42 161 160
f 31 162 161
f 24 160 162
f 161 162 160
