# procedurally generated asteroid
v -0.512968 0.828564 0.027063
v 0.517045 0.908075 0.027063
v -0.595301 -0.891739 0.027063
v 0.520159 -0.843071 0.027063
v -0.022532 -0.514230 0.915771
v -0.022532 0.530867 0.829358
v -0.022532 -0.740111 -1.227129
v -0.022532 0.564438 -0.829551
v 0.986616 0.035022 -0.596625
v 0.953994 0.035022 0.630588
v -0.931421 0.035022 -0.534662
v -0.932343 0.035022 0.589357
v -0.759119 0.490258 0.308414
v -0.524730 0.345398 0.839637
v -0.267740 0.676986 0.423818
v 0.259990 0.774673 0.484192
v -0.022532 0.948694 0.027063
v 0.286107 0.843047 -0.472324
v -0.328075 0.834944 -0.467317
v -0.580222 0.379694 -0.875300
v -0.822039 0.529145 -0.278322
v -1.065079 0.035022 0.027063
v 0.481049 0.346251 0.841872
v 0.945385 0.633227 0.396774
v -0.580734 -0.309966 0.930254
v -0.022532 0.035022 1.044554
v -0.907868 -0.512146 -0.311106
v -0.967147 -0.548783 0.387874
v -0.022532 0.035022 -1.084166
v -0.592058 -0.316965 -0.894451
v 0.938874 0.629203 -0.340162
v 0.485431 0.348960 -0.794838
v 0.863637 -0.512661 0.365549
v 0.486353 -0.279486 0.850456
v 0.293317 -0.791879 0.538116
v -0.357604 -0.842210 0.569221
v -0.022532 -1.006200 0.027063
v -0.389502 -0.925718 -0.566707
v 0.358884 -0.963538 -0.590082
v 0.597647 -0.348270 -0.976408
v 0.904565 -0.537955 -0.327057
v 1.410182 0.035022 0.027063
v -0.658626 0.678695 0.174329
v -0.548056 0.650316 0.407335
v -0.393211 0.772016 0.249093
v -0.750239 0.201515 0.746202
v -0.679066 0.440782 0.587810
v -0.852240 0.284984 0.444374
v -0.159741 0.627676 0.626777
v -0.412850 0.574429 0.658611
v -0.273994 0.454838 0.861751
v -0.150052 0.781542 0.233396
v -0.270780 0.908892 0.027063
v 0.122306 0.660623 0.660117
v -0.022532 0.693003 0.433717
v 0.240070 0.959416 0.027063
v 0.117533 0.854973 0.253691
v 0.401005 0.877109 0.280754
v -0.179650 0.954806 -0.227160
v -0.443388 0.871779 -0.225023
v 0.415562 0.906050 -0.235348
v 0.136590 0.966537 -0.230402
v -0.183057 0.728385 -0.674562
v -0.022532 0.876553 -0.493032
v 0.137533 0.726393 -0.672545
v -0.605113 0.717120 -0.394497
v -0.690044 0.710488 -0.127478
v -0.295542 0.490812 -0.879152
v -0.455203 0.632959 -0.673015
v -0.909611 0.302268 -0.419104
v -0.733539 0.474449 -0.580210
v -0.799974 0.212894 -0.741226
v -0.817818 0.526536 0.027063
v -1.035589 0.035022 -0.260726
v -0.964548 0.295389 -0.133853
v -0.922243 0.283696 0.180752
v -1.025968 0.035022 0.312118
v 0.585824 0.747297 0.467273
v 0.746560 0.813277 0.205120
v 0.231027 0.458336 0.868707
v 0.394815 0.611781 0.702344
v 1.023186 0.350060 0.553018
v 0.715313 0.491035 0.657257
v 0.721962 0.205355 0.762790
v -0.290743 0.200786 0.997462
v -0.022532 0.305666 0.979769
v -0.812020 -0.145606 0.807255
v -0.587557 0.035022 0.941293
v -0.022532 -0.247998 1.023335
v -0.301311 -0.137273 1.035696
v -0.303012 -0.433239 0.958070
v -1.096891 -0.261924 0.210585
v -1.012291 -0.263158 0.524873
v -0.952966 -0.245286 -0.440910
v -1.070577 -0.254651 -0.151965
v -0.809697 -0.761522 0.209305
v -0.990534 -0.563237 0.027063
v -0.785988 -0.737531 -0.149691
v -0.652500 0.035022 -0.992248
v -0.802497 -0.143427 -0.743720
v -0.022532 0.318847 -0.972043
v -0.322004 0.220106 -1.056440
v -0.345062 -0.503442 -1.043525
v -0.333593 -0.157225 -1.098368
v -0.022532 -0.313871 -1.201093
v 0.405684 0.626802 -0.665805
v 0.238013 0.470000 -0.837773
v 0.745795 0.812503 -0.150818
v 0.591508 0.753952 -0.417261
v 0.729779 0.207144 -0.716390
v 0.713460 0.489889 -0.601549
v 1.028363 0.351620 -0.501497
v 0.709078 -0.705304 0.196443
v 0.582184 -0.672991 0.464639
v 0.420552 -0.845928 0.292462
v 0.713357 -0.133343 0.754287
v 0.694825 -0.408329 0.639758
v 0.957077 -0.260100 0.519767
v 0.143072 -0.680275 0.750882
v 0.411136 -0.564291 0.728751
v 0.243046 -0.408359 0.908605
v 0.144165 -0.940836 0.296783
v 0.258497 -0.954241 0.027063
v -0.193867 -0.705035 0.775936
v -0.022532 -0.851965 0.575251
v -0.312355 -0.985198 0.027063
v -0.193467 -0.965651 0.303642
v -0.496289 -0.906915 0.310835
v 0.155291 -1.005972 -0.260661
v 0.440531 -0.885652 -0.250304
v -0.494613 -0.903583 -0.255706
v -0.201775 -1.014290 -0.262960
v 0.217090 -0.999984 -1.020275
v -0.022532 -1.079141 -0.661528
v -0.243635 -0.920000 -0.939338
v 0.633218 -0.732743 -0.447442
v 0.722706 -0.719095 -0.145473
v 0.356503 -0.597775 -1.231081
v 0.547601 -0.752882 -0.895432
v 1.013710 -0.277162 -0.494126
v 0.770803 -0.455286 -0.650526
v 0.763085 -0.144720 -0.749304
v 0.952561 -0.567618 0.027063
v 1.285562 0.035022 -0.344539
v 1.213674 -0.306657 -0.184107
v 1.177383 -0.296627 0.232032
v 1.247556 0.035022 0.387868
v 0.243884 -0.129632 0.990962
v 0.511219 0.035022 0.890689
v 0.239642 0.197054 0.975614
v -0.691189 -0.747856 0.510908
v -0.496435 -0.619897 0.793854
v -0.820897 -0.458395 0.708948
v -0.516930 -0.648220 -0.772891
v -0.663027 -0.714883 -0.436404
v -0.765060 -0.423886 -0.607133
v 0.542248 0.035022 -0.886769
v 0.296624 -0.162227 -1.127652
v 0.249665 0.203249 -0.957755
v 1.297856 0.399968 0.252612
v 1.302454 0.401239 -0.199272
v 1.054403 0.700604 0.027063
f 1 43 45
f 13 44 43
f 15 45 44
f 43 44 45
f 12 46 48
f 14 47 46
f 13 48 47
f 46 47 48
f 6 49 51
f 15 50 49
f 14 51 50
f 49 50 51
f 13 47 44
f 14 50 47
f 15 44 50
f 47 50 44
f 1 45 53
f 15 52 45
f 17 53 52
f 45 52 53
f 6 54 49
f 16 55 54
f 15 49 55
f 54 55 49
f 2 56 58
f 17 57 56
f 16 58 57
f 56 57 58
f 15 55 52
f 16 57 55
f 17 52 57
f 55 57 52
f 1 53 60
f 17 59 53
f 19 60 59
f 53 59 60
f 2 61 56
f 18 62 61
f 17 56 62
f 61 62 56
f 8 63 65
f 19 64 63
f 18 65 64
f 63 64 65
f 17 62 59
f 18 64 62
f 19 59 64
f 62 64 59
f 1 60 67
f 19 66 60
f 21 67 66
f 60 66 67
f 8 68 63
f 20 69 68
f 19 63 69
f 68 69 63
f 11 70 72
f 21 71 70
f 20 72 71
f 70 71 72
f 19 69 66
f 20 71 69
f 21 66 71
f 69 71 66
f 1 67 43
f 21 73 67
f 13 43 73
f 67 73 43
f 11 74 70
f 22 75 74
f 21 70 75
f 74 75 70
f 12 48 77
f 13 76 48
f 22 77 76
f 48 76 77
f 21 75 73
f 22 76 75
f 13 73 76
f 75 76 73
f 2 58 79
f 16 78 58
f 24 79 78
f 58 78 79
f 6 80 54
f 23 81 80
f 16 54 81
f 80 81 54
f 10 82 84
f 24 83 82
f 23 84 83
f 82 83 84
f 16 81 78
f 23 83 81
f 24 78 83
f 81 83 78
f 6 51 86
f 14 85 51
f 26 86 85
f 51 85 86
f 12 87 46
f 25 88 87
f 14 46 88
f 87 88 46
f 5 89 91
f 26 90 89
f 25 91 90
f 89 90 91
f 14 88 85
f 25 90 88
f 26 85 90
f 88 90 85
f 12 77 93
f 22 92 77
f 28 93 92
f 77 92 93
f 11 94 74
f 27 95 94
f 22 74 95
f 94 95 74
f 3 96 98
f 28 97 96
f 27 98 97
f 96 97 98
f 22 95 92
f 27 97 95
f 28 92 97
f 95 97 92
f 11 72 100
f 20 99 72
f 30 100 99
f 72 99 100
f 8 101 68
f 29 102 101
f 20 68 102
f 101 102 68
f 7 103 105
f 30 104 103
f 29 105 104
f 103 104 105
f 20 102 99
f 29 104 102
f 30 99 104
f 102 104 99
f 8 65 107
f 18 106 65
f 32 107 106
f 65 106 107
f 2 108 61
f 31 109 108
f 18 61 109
f 108 109 61
f 9 110 112
f 32 111 110
f 31 112 111
f 110 111 112
f 18 109 106
f 31 111 109
f 32 106 111
f 109 111 106
f 4 113 115
f 33 114 113
f 35 115 114
f 113 114 115
f 10 116 118
f 34 117 116
f 33 118 117
f 116 117 118
f 5 119 121
f 35 120 119
f 34 121 120
f 119 120 121
f 33 117 114
f 34 120 117
f 35 114 120
f 117 120 114
f 4 115 123
f 35 122 115
f 37 123 122
f 115 122 123
f 5 124 119
f 36 125 124
f 35 119 125
f 124 125 119
f 3 126 128
f 37 127 126
f 36 128 127
f 126 127 128
f 35 125 122
f 36 127 125
f 37 122 127
f 125 127 122
f 4 123 130
f 37 129 123
f 39 130 129
f 123 129 130
f 3 131 126
f 38 132 131
f 37 126 132
f 131 132 126
f 7 133 135
f 39 134 133
f 38 135 134
f 133 134 135
f 37 132 129
f 38 134 132
f 39 129 134
f 132 134 129
f 4 130 137
f 39 136 130
f 41 137 136
f 130 136 137
f 7 138 133
f 40 139 138
f 39 133 139
f 138 139 133
f 9 140 142
f 41 141 140
f 40 142 141
f 140 141 142
f 39 139 136
f 40 141 139
f 41 136 141
f 139 141 136
f 4 137 113
f 41 143 137
f 33 113 143
f 137 143 113
f 9 144 140
f 42 145 144
f 41 140 145
f 144 145 140
f 10 118 147
f 33 146 118
f 42 147 146
f 118 146 147
f 41 145 143
f 42 146 145
f 33 143 146
f 145 146 143
f 5 121 89
f 34 148 121
f 26 89 148
f 121 148 89
f 10 84 116
f 23 149 84
f 34 116 149
f 84 149 116
f 6 86 80
f 26 150 86
f 23 80 150
f 86 150 80
f 34 149 148
f 23 150 149
f 26 148 150
f 149 150 148
f 3 128 96
f 36 151 128
f 28 96 151
f 128 151 96
f 5 91 124
f 25 152 91
f 36 124 152
f 91 152 124
f 12 93 87
f 28 153 93
f 25 87 153
f 93 153 87
f 36 152 151
f 25 153 152
f 28 151 153
f 152 153 151
f 7 135 103
f 38 154 135
f 30 103 154
f 135 154 103
f 3 98 131
f 27 155 98
f 38 131 155
f 98 155 131
f 11 100 94
f 30 156 100
f 27 94 156
f 100 156 94
f 38 155 154
f 27 156 155
f 30 154 156
f 155 156 154
f 9 142 110
f 40 157 142
f 32 110 157
f 142 157 110
f 7 105 138
f 29 158 105
f 40 138 158
f 105 158 138
f 8 107 101
f 32 159 107
f 29 101 159
f 107 159 101
f 40 158 157
f 29 159 158
f 32 157 159
f 158 159 157
f 10 147 82
f 42 160 147
f 24 82 160
f 147 160 82
f 9 112 144
f 31 161 112
f 42 144 161
f 112 161 144
f 2 79 108
f 24 162 79
f 31 108 162
f 79 162 108
f 42 161 160
f 31 162 161
f 24 160 162
f 161 162 160
