# procedurally generated asteroid
v -0.537353 0.878269 -0.006534
v 0.540214 0.877901 -0.006534
v -0.564618 -0.909755 -0.006534
v 0.559538 -0.896538 -0.006534
v 0.001544 -0.521498 0.847485
v 0.001544 0.567311 0.901176
v 0.001544 -0.460447 -0.761771
v 0.001544 0.530856 -0.855260
v 0.863364 0.006315 -0.539168
v 0.882559 0.006315 0.537963
v -0.932496 0.006315 -0.583803
v -0.872726 0.006315 0.533794
v -0.823107 0.515978 0.308454
v -0.514235 0.325084 0.828013
v -0.331669 0.878678 0.532615
v 0.333683 0.875865 0.530877
v 0.001544 1.048466 -0.006534
v 0.314920 0.826744 -0.513587
v -0.308716 0.818586 -0.508545
v -0.505136 0.319460 -0.826359
v -0.816010 0.511591 -0.318812
v -1.023709 0.006315 -0.006534
v 0.514888 0.323579 0.824074
v 0.822715 0.513826 0.307125
v -0.505691 -0.307174 0.814190
v 0.001544 0.006315 1.008279
v -0.868370 -0.531321 -0.338812
v -0.841691 -0.514833 0.315553
v 0.001544 0.006315 -0.895254
v -0.510999 -0.310454 -0.835846
v 0.819754 0.511997 -0.319063
v 0.513824 0.322921 -0.835421
v 0.924016 -0.563804 0.345818
v 0.511670 -0.308960 0.818867
v 0.317493 -0.820851 0.504683
v -0.312727 -0.816457 0.501967
v 0.001544 -1.092257 -0.006534
v -0.357942 -0.934831 -0.588195
v 0.346858 -0.897729 -0.565264
v 0.485654 -0.292882 -0.789841
v 0.837578 -0.510382 -0.325871
v 1.023647 0.006315 -0.006534
v -0.708241 0.724557 0.157793
v -0.611448 0.724019 0.437031
v -0.454678 0.913387 0.266735
v -0.716752 0.170655 0.703304
v -0.706608 0.443977 0.598300
v -0.878714 0.271506 0.436201
v -0.172845 0.759559 0.755684
v -0.448364 0.628072 0.721432
v -0.271586 0.462305 0.900077
v -0.172357 1.024348 0.274843
v -0.281855 1.003922 -0.006534
v 0.175600 0.758121 0.754229
v 0.001544 0.938112 0.569348
v 0.284773 1.003323 -0.006534
v 0.175199 1.022909 0.274445
v 0.456494 0.910858 0.265973
v -0.163789 0.974190 -0.274049
v -0.437810 0.879850 -0.269700
v 0.442613 0.883261 -0.270728
v 0.167114 0.975577 -0.274432
v -0.159002 0.699767 -0.708249
v 0.001544 0.863698 -0.536426
v 0.164013 0.708075 -0.716655
v -0.589185 0.697953 -0.433990
v -0.699354 0.715564 -0.168804
v -0.255027 0.434659 -0.858178
v -0.423500 0.593711 -0.694270
v -0.895568 0.276584 -0.457747
v -0.701293 0.440692 -0.606829
v -0.752199 0.178765 -0.751403
v -0.858067 0.537584 -0.006534
v -1.004786 0.006315 -0.292412
v -0.965681 0.273649 -0.171756
v -0.963707 0.273104 0.158350
v -0.986919 0.006315 0.274267
v 0.612107 0.721175 0.435273
v 0.709860 0.723070 0.157453
v 0.274002 0.461182 0.897844
v 0.449638 0.625565 0.718496
v 0.876840 0.270011 0.433705
v 0.705658 0.441481 0.594851
v 0.715742 0.169717 0.699255
v -0.267869 0.172822 0.968212
v 0.001544 0.289285 0.989560
v -0.717774 -0.158259 0.704314
v -0.533732 0.006315 0.859560
v 0.001544 -0.268572 0.961109
v -0.263986 -0.157792 0.954164
v -0.260072 -0.430453 0.861859
v -0.987083 -0.266935 0.162343
v -0.894324 -0.263579 0.444052
v -0.942293 -0.278030 -0.481248
v -0.994055 -0.268862 -0.176603
v -0.724399 -0.728277 0.161534
v -0.890977 -0.545293 -0.006534
v -0.746338 -0.750477 -0.179682
v -0.543799 0.006315 -0.888918
v -0.783085 -0.173201 -0.781925
v 0.001544 0.270191 -0.935417
v -0.249816 0.161664 -0.915965
v -0.233843 -0.386662 -0.787862
v -0.232835 -0.138539 -0.854524
v 0.001544 -0.217860 -0.795665
v 0.436956 0.608039 -0.711045
v 0.264845 0.445896 -0.880520
v 0.704161 0.717304 -0.169202
v 0.598705 0.705483 -0.438644
v 0.718532 0.170356 -0.715081
v 0.705856 0.441603 -0.608088
v 0.875824 0.269705 -0.446263
v 0.759694 -0.760868 0.168990
v 0.635084 -0.735447 0.451899
v 0.454955 -0.895168 0.265051
v 0.729890 -0.160324 0.713236
v 0.747422 -0.454663 0.630521
v 0.951670 -0.279925 0.471342
v 0.163421 -0.692886 0.700998
v 0.438259 -0.597211 0.700086
v 0.263280 -0.430653 0.862256
v 0.170109 -0.980483 0.266210
v 0.295734 -1.029275 -0.006534
v -0.160164 -0.692157 0.700259
v 0.001544 -0.855564 0.526136
v -0.298532 -1.049996 -0.006534
v -0.167763 -0.984825 0.267410
v -0.449649 -0.890760 0.263723
v 0.188263 -1.086758 -0.308652
v 0.475752 -0.936517 -0.290577
v -0.494026 -0.978991 -0.303373
v -0.189447 -1.111764 -0.315564
v 0.168375 -0.714285 -0.735720
v 0.001544 -0.986147 -0.619910
v -0.167292 -0.722946 -0.744484
v 0.623556 -0.721949 -0.456626
v 0.734606 -0.735481 -0.176251
v 0.235941 -0.385009 -0.784575
v 0.434810 -0.592443 -0.707573
v 0.877196 -0.257488 -0.446953
v 0.701580 -0.426331 -0.604436
v 0.708188 -0.155359 -0.704858
v 0.924864 -0.564328 -0.006534
v 0.974209 0.006315 -0.282848
v 0.983857 -0.265190 -0.174334
v 1.037476 -0.280010 0.170424
v 1.000504 0.006315 0.277249
v 0.266630 -0.157517 0.952556
v 0.534807 0.006315 0.856303
v 0.270359 0.172452 0.966048
v -0.602955 -0.701444 0.430885
v -0.429254 -0.589033 0.690511
v -0.706496 -0.431278 0.598204
v -0.449610 -0.617164 -0.736517
v -0.655321 -0.762756 -0.481847
v -0.758782 -0.463592 -0.655930
v 0.524062 0.006315 -0.851986
v 0.236487 -0.138888 -0.856566
v 0.257595 0.164563 -0.932936
v 0.962328 0.271869 0.157587
v 0.959613 0.271119 -0.170192
v 0.859916 0.536818 -0.006534
f 1 43 45
f 13 44 43
f 15 45 44
f 43 44 45
f 12 46 48
f 14 47 46
f 13 48 47
f 46 47 48
f 6 49 51
f 15 50 49
f 14 51 50
f 49 50 51
f 13 47 44
f 14 50 47
f 15 44 50
f 47 50 44
f 1 45 53
f 15 52 45
f 17 53 52
f 45 52 53
f 6 54 49
f 16 55 54
f 15 49 55
f 54 55 49
f 2 56 58
f 17 57 56
f 16 58 57
f 56 57 58
f 15 55 52
f 16 57 55
f 17 52 57
f 55 57 52
f 1 53 60
f 17 59 53
f 19 60 59
f 53 59 60
f 2 61 56
f 18 62 61
f 17 56 62
f 61 62 56
f 8 63 65
f 19 64 63
f 18 65 64
f 63 64 65
f 17 62 59
f 18 64 62
f 19 59 64
f 62 64 59
f 1 60 67
f 19 66 60
f 21 67 66
f 60 66 67
f 8 68 63
f 20 69 68
f 19 63 69
f 68 69 63
f 11 70 72
f 21 71 70
f 20 72 71
f 70 71 72
f 19 69 66
f 20 71 69
f 21 66 71
f 69 71 66
f 1 67 43
f 21 73 67
f 13 43 73
f 67 73 43
f 11 74 70
f 22 75 74
f 21 70 75
f 74 75 70
f 12 48 77
f 13 76 48
f 22 77 76
f 48 76 77
f 21 75 73
f 22 76 75
f 13 73 76
f 75 76 73
f 2 58 79
f 16 78 58
f 24 79 78
f 58 78 79
f 6 80 54
f 23 81 80
f 16 54 81
f 80 81 54
f 10 82 84
f 24 83 82
f 23 84 83
f 82 83 84
f 16 81 78
f 23 83 81
f 24 78 83
f 81 83 78
f 6 51 86
f 14 85 51
f 26 86 85
f 51 85 86
f 12 87 46
f 25 88 87
f 14 46 88
f 87 88 46
f 5 89 91
f 26 90 89
f 25 91 90
f 89 90 91
f 14 88 85
f 25 90 88
f 26 85 90
f 88 90 85
f 12 77 93
f 22 92 77
f 28 93 92
f 77 92 93
f 11 94 74
f 27 95 94
f 22 74 95
f 94 95 74
f 3 96 98
f 28 97 96
f 27 98 97
f 96 97 98
f 22 95 92
f 27 97 95
f 28 92 97
f 95 97 92
f 11 72 100
f 20 99 72
f 30 100 99
f 72 99 100
f 8 101 68
f 29 102 101
f 20 68 102
f 101 102 68
f 7 103 105
f 30 104 103
f 29 105 104
f 103 104 105
f 20 102 99
f 29 104 102
f 30 99 104
f 102 104 99
f 8 65 107
f 18 106 65
f 32 107 106
f 65 106 107
f 2 108 61
f 31 109 108
f 18 61 109
f 108 109 61
f 9 110 112
f 32 111 110
f 31 112 111
f 110 111 112
f 18 109 106
f 31 111 109
f 32 106 111
f 109 111 106
f 4 113 115
f 33 114 113
f 35 115 114
f 113 114 115
f 10 116 118
f 34 117 116
f 33 118 117
f 116 117 118
f 5 119 121
f 35 120 119
f 34 121 120
f 119 120 121
f 33 117 114
f 34 120 117
f 35 114 120
f 117 120 114
f 4 115 123
f 35 122 115
f 37 123 122
f 115 122 123
f 5 124 119
f 36 125 124
f 35 119 125
f 124 125 119
f 3 126 128
f 37 127 126
f 36 128 127
f 126 127 128
f 35 125 122
f 36 127 125
f 37 122 127
f 125 127 122
f 4 123 130
f 37 129 123
f 39 130 129
f 123 129 130
f 3 131 126
f 38 132 131
f 37 126 132
f 131 132 126
f 7 133 135
f 39 134 133
f 38 135 134
f 133 134 135
f 37 132 129
f 38 134 132
f 39 129 134
f 132 134 129
f 4 130 137
f 39 136 130
f 41 137 136
f 130 136 137
f 7 138 133
f 40 139 138
f 39 133 139
f 138 139 133
f 9 140 142
f 41 141 140
f 40 142 141
f 140 141 142
f 39 139 136
f 40 141 139
f 41 136 141
f 139 141 136
f 4 137 113
f 41 143 137
f 33 113 143
f 137 143 113
f 9 144 140
f 42 145 144
f 41 140 145
f 144 145 140
f 10 118 147
f 33 146 118
f 42 147 146
f 118 146 147
f 41 145 143
f 42 146 145
f 33 143 146
f 145 146 143
f 5 121 89
f 34 148 121
f 26 89 148
f 121 148 89
f 10 84 116
f 23 149 84
f 34 116 149
f 84 149 116
f 6 86 80
f 26 150 86
f 23 80 150
f 86 150 80
f 34 149 148
f 23 150 149
f 26 148 150
f 149 150 148
f 3 128 96
f 36 151 128
f 28 96 151
f 128 151 96
f 5 91 124
f 25 152 91
f 36 124 152
f 91 152 124
f 12 93 87
f 28 153 93
f 25 87 153
f 93 153 87
f 36 152 151
f 25 153 152
f 28 151 153
f 152 153 151
f 7 135 103
f 38 154 135
f 30 103 154
f 135 154 103
f 3 98 131
f 27 155 98
f 38 131 155
f 98 155 131
f 11 100 94
f 30 156 100
f 27 94 156
f 100 156 94
f 38 155 154
f 27 156 155
f 30 154 156
f 155 156 154
f 9 142 110
f 40 157 142
f 32 110 157
f 142 157 110
f 7 105 138
f 29 158 105
f 40 138 158
f 105 158 138
f 8 107 101
f 32 159 107
f 29 101 159
f 107 159 101
f 40 158 157
f 29 159 158
f 32 157 159
f 158 159 157
f 10 147 82
f 42 160 147
f 24 82 160
f 147 160 82
f 9 112 144
f 31 161 112
f 42 144 161
f 112 161 144
f 2 79 108
f 24 162 79
f 31 108 162
f 79 162 108
f 42 161 160
f 31 162 161
f 24 160 162
f 161 162 160
